<?xml version="1.0" encoding="us-ascii" standalone="no"?><svg xmlns="http://www.w3.org/2000/svg" xmlns:xlink="http://www.w3.org/1999/xlink" contentStyleType="text/css" height="865px" preserveAspectRatio="none" style="width:866px;height:865px;background:#FFFFFF;" version="1.1" viewBox="0 0 866 865" width="866px" zoomAndPan="magnify"><defs/><g><!--cluster Tournaments Arranger--><g id="cluster_Tournaments Arranger"><rect fill="none" height="852" rx="2.5" ry="2.5" style="stroke:#181818;stroke-width:1.0;" width="566" x="294" y="7"/><text fill="#000000" font-family="sans-serif" font-size="14" font-weight="bold" lengthAdjust="spacing" textLength="185" x="484.5" y="21.9951">Tournaments Arranger</text></g><g id="elem_create_tournaments"><ellipse cx="416.2915" cy="135.1583" fill="#F1F1F1" rx="88.7915" ry="20.1583" style="stroke:#181818;stroke-width:0.5;"/><text fill="#000000" font-family="sans-serif" font-size="14" lengthAdjust="spacing" textLength="139" x="346.7915" y="138.005">Create tournament</text></g><g id="elem_set_dates"><ellipse cx="748.4604" cy="363.9921" fill="#F1F1F1" rx="95.4604" ry="21.4921" style="stroke:#181818;stroke-width:0.5;"/><text fill="#000000" font-family="sans-serif" font-size="14" lengthAdjust="spacing" textLength="154" x="671.4604" y="366.8388">Set start &amp; end dates</text></g><g id="elem_edit_tournament_data"><ellipse cx="416.6963" cy="60.9393" fill="#F1F1F1" rx="80.1963" ry="18.4393" style="stroke:#181818;stroke-width:0.5;"/><text fill="#000000" font-family="sans-serif" font-size="14" lengthAdjust="spacing" textLength="119" x="355.6039" y="64.2979">Edit tournament</text></g><g id="elem_edit_match_scores"><ellipse cx="748.4263" cy="211.7853" fill="#F1F1F1" rx="84.4263" ry="19.2853" style="stroke:#181818;stroke-width:0.5;"/><text fill="#000000" font-family="sans-serif" font-size="14" lengthAdjust="spacing" textLength="129" x="683.805" y="214.6739">Edit match scores</text></g><g id="elem_record_match_scores"><ellipse cx="748.6163" cy="136.2233" fill="#F1F1F1" rx="94.1163" ry="21.2233" style="stroke:#181818;stroke-width:0.5;"/><text fill="#000000" font-family="sans-serif" font-size="14" lengthAdjust="spacing" textLength="151" x="673.1163" y="139.0699">Record match scores</text></g><g id="elem_stop_registration"><ellipse cx="748.288" cy="60.8576" fill="#F1F1F1" rx="82.288" ry="18.8576" style="stroke:#181818;stroke-width:0.5;"/><text fill="#000000" font-family="sans-serif" font-size="14" lengthAdjust="spacing" textLength="124" x="685.4505" y="63.9838">Stop registration</text></g><g id="elem_archive_tournament"><ellipse cx="748.4996" cy="287.0999" fill="#F1F1F1" rx="90.9996" ry="20.5999" style="stroke:#181818;stroke-width:0.5;"/><text fill="#000000" font-family="sans-serif" font-size="14" lengthAdjust="spacing" textLength="144" x="676.4996" y="289.9466">Archive tournament</text></g><g id="elem_view_match_scores"><ellipse cx="416.5998" cy="355.22" fill="#F1F1F1" rx="86.5998" ry="19.72" style="stroke:#181818;stroke-width:0.5;"/><text fill="#000000" font-family="sans-serif" font-size="14" lengthAdjust="spacing" textLength="134" x="349.5998" y="358.0666">View match scores</text></g><g id="elem_view_participant_ranking"><ellipse cx="416.4086" cy="433.0817" fill="#F1F1F1" rx="105.9086" ry="23.5817" style="stroke:#181818;stroke-width:0.5;"/><text fill="#000000" font-family="sans-serif" font-size="14" lengthAdjust="spacing" textLength="177" x="327.9086" y="435.9284">View participant ranking</text></g><g id="elem_view_match_schedule"><ellipse cx="416.3371" cy="514.1674" fill="#F1F1F1" rx="101.3371" ry="22.6674" style="stroke:#181818;stroke-width:0.5;"/><text fill="#000000" font-family="sans-serif" font-size="14" lengthAdjust="spacing" textLength="167" x="332.8371" y="517.0141">View matches schedule</text></g><g id="elem_add_sport_game"><ellipse cx="416.4652" cy="208.193" fill="#F1F1F1" rx="78.9652" ry="18.193" style="stroke:#181818;stroke-width:0.5;"/><text fill="#000000" font-family="sans-serif" font-size="14" lengthAdjust="spacing" textLength="116" x="356.4" y="211.6886">Add sport/game</text></g><g id="elem_view_participant_profile"><ellipse cx="416.3679" cy="751.1736" fill="#F1F1F1" rx="106.3679" ry="23.6736" style="stroke:#181818;stroke-width:0.5;"/><text fill="#000000" font-family="sans-serif" font-size="14" lengthAdjust="spacing" textLength="178" x="327.3679" y="754.0203">View participants profile</text></g><g id="elem_create_team"><ellipse cx="416.3288" cy="825.7658" fill="#F1F1F1" rx="69.3288" ry="16.2658" style="stroke:#181818;stroke-width:0.5;"/><text fill="#000000" font-family="sans-serif" font-size="14" lengthAdjust="spacing" textLength="91" x="367.8288" y="829.5133">Create team</text></g><g id="elem_generate_matches"><ellipse cx="416.5998" cy="281.22" fill="#F1F1F1" rx="86.5998" ry="19.72" style="stroke:#181818;stroke-width:0.5;"/><text fill="#000000" font-family="sans-serif" font-size="14" lengthAdjust="spacing" textLength="134" x="349.5998" y="284.0666">Generate matches</text></g><g id="elem_leave_tournament"><ellipse cx="416.728" cy="591.0456" fill="#F1F1F1" rx="85.728" ry="19.5456" style="stroke:#181818;stroke-width:0.5;"/><text fill="#000000" font-family="sans-serif" font-size="14" lengthAdjust="spacing" textLength="132" x="350.728" y="593.8923">Leave tournament</text></g><g id="elem_register_in_tournament"><ellipse cx="416.2923" cy="668.7585" fill="#F1F1F1" rx="101.7923" ry="22.7585" style="stroke:#181818;stroke-width:0.5;"/><text fill="#000000" font-family="sans-serif" font-size="14" lengthAdjust="spacing" textLength="168" x="332.2923" y="671.6051">Register in tournament</text></g><!--entity admin--><g id="elem_admin"><ellipse cx="56" cy="319.5" fill="#F1F1F1" rx="8" ry="8" style="stroke:#181818;stroke-width:0.5;"/><path d="M56,327.5 L56,354.5 M43,335.5 L69,335.5 M56,354.5 L43,369.5 M56,354.5 L69,369.5 " fill="none" style="stroke:#181818;stroke-width:0.5;"/><text fill="#000000" font-family="sans-serif" font-size="14" lengthAdjust="spacing" textLength="100" x="6" y="383.9951">Administrator</text></g><!--entity particip--><g id="elem_particip"><ellipse cx="207" cy="575.5" fill="#F1F1F1" rx="8" ry="8" style="stroke:#181818;stroke-width:0.5;"/><path d="M207,583.5 L207,610.5 M194,591.5 L220,591.5 M207,610.5 L194,625.5 M207,610.5 L220,625.5 " fill="none" style="stroke:#181818;stroke-width:0.5;"/><text fill="#000000" font-family="sans-serif" font-size="14" lengthAdjust="spacing" textLength="80" x="167" y="639.9951">Participant</text></g><!--reverse link create_tournaments to set_dates--><g id="link_create_tournaments_set_dates"><path d="M488.988,149.86 C501.578,155.144 513.631,162.303 523,172 C554.06,204.148 524.968,233.18 553,268 C586.059,309.066 641.13,333.927 684.249,348.025 " fill="none" id="create_tournaments-backto-set_dates" style="stroke:#181818;stroke-width:1.0;stroke-dasharray:7.0,7.0;"/><polygon fill="#181818" points="484.329,147.997,491.2009,155.0523,488.9717,149.8532,494.1708,147.624,484.329,147.997" style="stroke:#181818;stroke-width:1.0;"/><text fill="#000000" font-family="sans-serif" font-size="13" lengthAdjust="spacing" textLength="68" x="554" y="264.0669">&#171;extends&#187;</text></g><!--reverse link edit_tournament_data to edit_match_scores--><g id="link_edit_tournament_data_edit_match_scores"><path d="M478.978,75.696 C494.152,80.971 509.82,87.935 523,97 C540.161,108.802 536.203,120.686 553,133 C591.74,161.4 608.494,155.928 653,174 C670.039,180.919 688.83,188.488 705.138,195.036 " fill="none" id="edit_tournament_data-backto-edit_match_scores" style="stroke:#181818;stroke-width:1.0;stroke-dasharray:7.0,7.0;"/><polygon fill="#181818" points="473.855,73.972,481.1078,80.6351,478.5935,75.5677,483.6609,73.0534,473.855,73.972" style="stroke:#181818;stroke-width:1.0;"/><text fill="#000000" font-family="sans-serif" font-size="13" lengthAdjust="spacing" textLength="68" x="554" y="129.0669">&#171;extends&#187;</text></g><!--reverse link edit_tournament_data to record_match_scores--><g id="link_edit_tournament_data_record_match_scores"><path d="M479.378,75.063 C537.116,88.185 622.972,107.698 681.885,121.087 " fill="none" id="edit_tournament_data-backto-record_match_scores" style="stroke:#181818;stroke-width:1.0;stroke-dasharray:7.0,7.0;"/><polygon fill="#181818" points="474.229,73.893,482.1182,79.7888,479.1046,75.0015,483.8918,71.9879,474.229,73.893" style="stroke:#181818;stroke-width:1.0;"/><text fill="#000000" font-family="sans-serif" font-size="13" lengthAdjust="spacing" textLength="68" x="554" y="91.0669">&#171;extends&#187;</text></g><!--reverse link edit_tournament_data to stop_registration--><g id="link_edit_tournament_data_stop_registration"><path d="M501.693,61 C552.141,61 615.972,61 665.944,61 " fill="none" id="edit_tournament_data-backto-stop_registration" style="stroke:#181818;stroke-width:1.0;stroke-dasharray:7.0,7.0;"/><polygon fill="#181818" points="496.543,61,505.543,65,501.543,61,505.543,57,496.543,61" style="stroke:#181818;stroke-width:1.0;"/><text fill="#000000" font-family="sans-serif" font-size="13" lengthAdjust="spacing" textLength="68" x="554" y="57.0669">&#171;extends&#187;</text></g><!--reverse link edit_tournament_data to archive_tournament--><g id="link_edit_tournament_data_archive_tournament"><path d="M485.351,73.852 C499.205,79.118 512.682,86.54 523,97 C553.203,127.618 526.199,155.364 553,189 C586.931,231.583 644.231,257.268 687.873,271.592 " fill="none" id="edit_tournament_data-backto-archive_tournament" style="stroke:#181818;stroke-width:1.0;stroke-dasharray:7.0,7.0;"/><polygon fill="#181818" points="480.642,72.148,487.7418,78.9739,485.3431,73.8507,490.4662,71.452,480.642,72.148" style="stroke:#181818;stroke-width:1.0;"/><text fill="#000000" font-family="sans-serif" font-size="13" lengthAdjust="spacing" textLength="68" x="554" y="185.0669">&#171;extends&#187;</text></g><!--link admin to create_tournaments--><g id="link_admin_create_tournaments"><path d="M90.73,310.892 C111.46,288.715 139.283,261.07 167,240 C215.494,203.136 229.863,195.65 286,172 C305.949,163.596 328.405,156.431 348.947,150.709 " fill="none" id="admin-to-create_tournaments" style="stroke:#181818;stroke-width:1.0;"/><polygon fill="#181818" points="353.848,149.36,344.1095,147.89,349.027,150.686,346.231,155.6035,353.848,149.36" style="stroke:#181818;stroke-width:1.0;"/></g><!--link admin to edit_tournament_data--><g id="link_admin_edit_tournament_data"><path d="M78.3918,310.709 C98.6137,276.412 131.135,225.836 167,188 C212.804,139.679 226.399,126.677 286,97 C305.822,87.13 328.742,79.631 349.74,74.101 " fill="none" id="admin-to-edit_tournament_data" style="stroke:#181818;stroke-width:1.0;"/><polygon fill="#181818" points="354.751,72.808,345.0373,71.1822,349.9094,74.0566,347.035,78.9288,354.751,72.808" style="stroke:#181818;stroke-width:1.0;"/></g><!--link admin to generate_matches--><g id="link_admin_generate_matches"><path d="M106.404,332.085 C116.14,329.116 126.334,326.259 136,324 C201.781,308.628 277.595,297.358 333.653,290.221 " fill="none" id="admin-to-generate_matches" style="stroke:#181818;stroke-width:1.0;"/><polygon fill="#181818" points="338.674,289.587,329.2433,286.7476,333.7135,290.2142,330.2469,294.6844,338.674,289.587" style="stroke:#181818;stroke-width:1.0;"/></g><!--link admin to add_sport_game--><g id="link_admin_add_sport_game"><path d="M106.157,315.951 C115.914,309.767 126.18,303.518 136,298 C204.947,259.257 292.974,234.419 351.636,220.861 " fill="none" id="admin-to-add_sport_game" style="stroke:#181818;stroke-width:1.0;"/><polygon fill="#181818" points="356.513,219.744,346.8467,217.8563,351.6394,220.8613,348.6344,225.654,356.513,219.744" style="stroke:#181818;stroke-width:1.0;"/></g><!--link admin to view_match_schedule--><g id="link_admin_view_match_schedule"><path d="M106.048,379.528 C151.472,406.881 221.534,446.773 286,474 C304.984,482.018 326.135,489.231 345.749,495.252 " fill="none" id="admin-to-view_match_schedule" style="stroke:#181818;stroke-width:1.0;"/><polygon fill="#181818" points="350.7,496.757,343.2524,490.3124,345.9161,495.3028,340.9257,497.9666,350.7,496.757" style="stroke:#181818;stroke-width:1.0;"/></g><!--link particip to view_match_schedule--><g id="link_particip_view_match_schedule"><path d="M247.233,576.291 C259.268,568.336 272.821,560.193 286,554 C304.16,545.466 324.59,538.178 343.764,532.255 " fill="none" id="particip-to-view_match_schedule" style="stroke:#181818;stroke-width:1.0;"/><polygon fill="#181818" points="348.609,530.778,338.8336,529.5772,343.8264,532.2365,341.1672,537.2293,348.609,530.778" style="stroke:#181818;stroke-width:1.0;"/></g><!--link admin to view_participant_ranking--><g id="link_admin_view_participant_ranking"><path d="M106.096,360.504 C165.836,374.501 267.422,398.304 337.816,414.798 " fill="none" id="admin-to-view_participant_ranking" style="stroke:#181818;stroke-width:1.0;"/><polygon fill="#181818" points="342.829,415.972,334.978,410.0255,337.9607,414.8321,333.1541,417.8148,342.829,415.972" style="stroke:#181818;stroke-width:1.0;"/></g><!--link particip to view_participant_ranking--><g id="link_particip_view_participant_ranking"><path d="M221.924,566.821 C234.458,537.506 255.61,498.086 286,474 C299.064,463.646 314.788,455.884 330.705,450.072 " fill="none" id="particip-to-view_participant_ranking" style="stroke:#181818;stroke-width:1.0;"/><polygon fill="#181818" points="335.649,448.33,325.8312,447.548,330.9331,449.9915,328.4896,455.0934,335.649,448.33" style="stroke:#181818;stroke-width:1.0;"/></g><!--link admin to create_team--><g id="link_admin_create_team"><path d="M58.8463,387.145 C64.2224,459.843 85.2091,619.979 167,721 C212.844,777.623 294.727,804.202 351.925,816.3421 " fill="none" id="admin-to-create_team" style="stroke:#181818;stroke-width:1.0;"/><polygon fill="#181818" points="357.035,817.4023,349.0368,811.6552,352.1395,816.3852,347.4095,819.4879,357.035,817.4023" style="stroke:#181818;stroke-width:1.0;"/></g><!--link particip to create_team--><g id="link_particip_create_team"><path d="M213.66,643.106 C221.996,685.606 241.688,753.433 286,792 C302.476,806.3397 324.304,814.7333 345.336,819.6139 " fill="none" id="particip-to-create_team" style="stroke:#181818;stroke-width:1.0;"/><polygon fill="#181818" points="350.376,820.7212,342.4439,814.8832,345.4925,819.6483,340.7273,822.6969,350.376,820.7212" style="stroke:#181818;stroke-width:1.0;"/></g><!--link admin to view_participant_profile--><g id="link_admin_view_participant_profile"><path d="M60.5302,387.245 C68.4206,451.732 93.0575,582.708 167,661 C206.983,703.334 268.392,725.813 320.159,737.719 " fill="none" id="admin-to-view_participant_profile" style="stroke:#181818;stroke-width:1.0;"/><polygon fill="#181818" points="325.138,738.838,317.2349,732.9608,320.2598,737.7409,315.4797,740.7658,325.138,738.838" style="stroke:#181818;stroke-width:1.0;"/></g><!--link particip to view_participant_profile--><g id="link_particip_view_participant_profile"><path d="M235.936,643.168 C257.608,672.689 284.261,708.76 286,710 C299.923,719.924 316.346,727.515 332.737,733.299 " fill="none" id="particip-to-view_participant_profile" style="stroke:#181818;stroke-width:1.0;"/><polygon fill="#181818" points="337.819,735.036,330.5964,728.3402,333.0877,733.4189,328.009,735.9103,337.819,735.036" style="stroke:#181818;stroke-width:1.0;"/></g><!--link admin to view_match_scores--><g id="link_admin_view_match_scores"><path d="M106.096,349.822 C162.259,350.762 255.406,352.321 324.851,353.483 " fill="none" id="admin-to-view_match_scores" style="stroke:#181818;stroke-width:1.0;"/><polygon fill="#181818" points="330.229,353.573,321.2977,349.4219,325.2297,353.4887,321.1629,357.4207,330.229,353.573" style="stroke:#181818;stroke-width:1.0;"/></g><!--link particip to view_match_scores--><g id="link_particip_view_match_scores"><path d="M211.547,566.978 C218.026,519.354 236.106,438.391 286,392 C299.539,379.411 317.068,371.069 334.831,365.552 " fill="none" id="particip-to-view_match_scores" style="stroke:#181818;stroke-width:1.0;"/><polygon fill="#181818" points="339.844,364.069,330.0789,362.7869,335.0495,365.4876,332.3488,370.4582,339.844,364.069" style="stroke:#181818;stroke-width:1.0;"/></g><!--link particip to register_in_tournament--><g id="link_particip_register_in_tournament"><path d="M247.029,617.038 C276.122,626.011 316.519,638.471 350.462,648.94 " fill="none" id="particip-to-register_in_tournament" style="stroke:#181818;stroke-width:1.0;"/><polygon fill="#181818" points="355.421,650.47,347.999,643.9959,350.6429,648.9969,345.642,651.6408,355.421,650.47" style="stroke:#181818;stroke-width:1.0;"/></g><!--link particip to leave_tournament--><g id="link_particip_leave_tournament"><path d="M247.029,602.367 C270.128,600.808 300.352,598.769 328.815,596.849 " fill="none" id="particip-to-leave_tournament" style="stroke:#181818;stroke-width:1.0;"/><polygon fill="#181818" points="334.107,596.492,324.8578,593.108,329.1184,596.8291,325.3972,601.0898,334.107,596.492" style="stroke:#181818;stroke-width:1.0;"/></g><!--SRC=[hLJ1Yjmm3BtdAyGKUflsNfQ1ePHUzb2wfTTWOct6DEC4MRCjbFvxPSTfxDYPGzav3FWzFUavaZNWCmEFGAQ_C6X3sB4PRTEeZaU2ixuQQnoJyYVbG7aWabyKiUdCf2nxQeh7fl59bEq7XCEtyKPMNT6oWpEHe4W7-Ds0_6uEE-Kaw2EXOXGRI-p1v-i2sgweorLFoE1OYi9RGAj1IxGBIeVSXbCG_3l1yJOTJvMyy6Om5jzfvIweuGCyFE0lbfJkT6hocf-quQrF52p9vckfYkggkBk0wqQABeCkeEsC1b61HjUrAlTyPmQ-egJIfGKAU6cYWh-6ZISU9ydTpmCbOpPtIz0sHUUkRT7NC72cxc9UYabJCvoa3R8I_ayFkOdl1d-MhNWHj6n4BfgI1oTFwOUn_QfDo3QIUtMbcqx-zMt0ilQCRxwRrk2caVXzBpUUlvdMRO1Q3pNttSfoeF7PfELIkv6iBmLKrsmTo3aF_8mMoOV6kuNeFe9j17F98wfo2WOFRcSWUK9-5970sAsG8jKQcyh_o1BrsnAErQMJaDKDijB5NLPgsuM54QhMrEMZmrx0cdbtfieSjQZovhvlcJObxjHTXkD-tILgaoXxKFkt3tJExpGrYzbEp5y0]--></g></svg>
