<?xml version="1.0" encoding="us-ascii" standalone="no"?><svg xmlns="http://www.w3.org/2000/svg" xmlns:xlink="http://www.w3.org/1999/xlink" contentStyleType="text/css" height="1182px" preserveAspectRatio="none" style="width:838px;height:1182px;background:#FFFFFF;" version="1.1" viewBox="0 0 838 1182" width="838px" zoomAndPan="magnify"><defs/><g><!--cluster Tournaments Arranger--><g id="cluster_Tournaments Arranger"><rect fill="none" height="1080" rx="2.5" ry="2.5" style="stroke:#181818;stroke-width:1.0;" width="538" x="294" y="96.42"/><text fill="#000000" font-family="sans-serif" font-size="14" font-weight="bold" lengthAdjust="spacing" textLength="185" x="470.5" y="111.4151">Tournaments Arranger</text></g><g id="elem_create_tournaments"><ellipse cx="726.2915" cy="151.5783" fill="#F1F1F1" rx="88.7915" ry="20.1583" style="stroke:#181818;stroke-width:0.5;"/><text fill="#000000" font-family="sans-serif" font-size="14" lengthAdjust="spacing" textLength="139" x="656.7915" y="154.425">Create tournament</text></g><g id="elem_choose_tournament_type"><ellipse cx="726.6728" cy="243.2546" fill="#F1F1F1" rx="89.6728" ry="20.3346" style="stroke:#181818;stroke-width:0.5;"/><text fill="#000000" font-family="sans-serif" font-size="14" lengthAdjust="spacing" textLength="141" x="656.1728" y="246.1012">Choose sport/game</text></g><g id="elem_set_dates"><ellipse cx="416.4604" cy="153.4121" fill="#F1F1F1" rx="95.4604" ry="21.4921" style="stroke:#181818;stroke-width:0.5;"/><text fill="#000000" font-family="sans-serif" font-size="14" lengthAdjust="spacing" textLength="154" x="339.4604" y="156.2588">Set start &amp; end dates</text></g><g id="elem_edit_tournament_data"><ellipse cx="726.6963" cy="317.3593" fill="#F1F1F1" rx="80.1963" ry="18.4393" style="stroke:#181818;stroke-width:0.5;"/><text fill="#000000" font-family="sans-serif" font-size="14" lengthAdjust="spacing" textLength="119" x="665.6039" y="320.7179">Edit tournament</text></g><g id="elem_edit_match_scores"><ellipse cx="416.4263" cy="305.2053" fill="#F1F1F1" rx="84.4263" ry="19.2853" style="stroke:#181818;stroke-width:0.5;"/><text fill="#000000" font-family="sans-serif" font-size="14" lengthAdjust="spacing" textLength="129" x="351.805" y="308.0939">Edit match scores</text></g><g id="elem_record_match_scores"><ellipse cx="416.6163" cy="381.6433" fill="#F1F1F1" rx="94.1163" ry="21.2233" style="stroke:#181818;stroke-width:0.5;"/><text fill="#000000" font-family="sans-serif" font-size="14" lengthAdjust="spacing" textLength="151" x="341.1163" y="384.4899">Record match scores</text></g><g id="elem_stop_registration"><ellipse cx="416.288" cy="456.2776" fill="#F1F1F1" rx="82.288" ry="18.8576" style="stroke:#181818;stroke-width:0.5;"/><text fill="#000000" font-family="sans-serif" font-size="14" lengthAdjust="spacing" textLength="124" x="353.4505" y="459.4038">Stop registration</text></g><g id="elem_archive_tournament"><ellipse cx="416.4996" cy="230.5199" fill="#F1F1F1" rx="90.9996" ry="20.5999" style="stroke:#181818;stroke-width:0.5;"/><text fill="#000000" font-family="sans-serif" font-size="14" lengthAdjust="spacing" textLength="144" x="344.4996" y="233.3666">Archive tournament</text></g><g id="elem_view_match_scores"><ellipse cx="416.5998" cy="675.64" fill="#F1F1F1" rx="86.5998" ry="19.72" style="stroke:#181818;stroke-width:0.5;"/><text fill="#000000" font-family="sans-serif" font-size="14" lengthAdjust="spacing" textLength="134" x="349.5998" y="678.4866">View match scores</text></g><g id="elem_view_participant_ranking"><ellipse cx="416.4086" cy="991.5017" fill="#F1F1F1" rx="105.9086" ry="23.5817" style="stroke:#181818;stroke-width:0.5;"/><text fill="#000000" font-family="sans-serif" font-size="14" lengthAdjust="spacing" textLength="177" x="327.9086" y="994.3484">View participant ranking</text></g><g id="elem_view_match_schedule"><ellipse cx="416.6163" cy="1139.6433" fill="#F1F1F1" rx="94.1163" ry="21.2233" style="stroke:#181818;stroke-width:0.5;"/><text fill="#000000" font-family="sans-serif" font-size="14" lengthAdjust="spacing" textLength="151" x="341.1163" y="1142.4899">View match schedule</text></g><g id="elem_add_sport_game"><ellipse cx="416.4652" cy="528.613" fill="#F1F1F1" rx="78.9652" ry="18.193" style="stroke:#181818;stroke-width:0.5;"/><text fill="#000000" font-family="sans-serif" font-size="14" lengthAdjust="spacing" textLength="116" x="356.4" y="532.1086">Add sport/game</text></g><g id="elem_view_participant_profile"><ellipse cx="416.3679" cy="753.5936" fill="#F1F1F1" rx="106.3679" ry="23.6736" style="stroke:#181818;stroke-width:0.5;"/><text fill="#000000" font-family="sans-serif" font-size="14" lengthAdjust="spacing" textLength="178" x="327.3679" y="756.4403">View participants profile</text></g><g id="elem_create_team"><ellipse cx="416.3288" cy="1066.1858" fill="#F1F1F1" rx="69.3288" ry="16.2658" style="stroke:#181818;stroke-width:0.5;"/><text fill="#000000" font-family="sans-serif" font-size="14" lengthAdjust="spacing" textLength="91" x="367.8288" y="1069.9333">Create team</text></g><g id="elem_generate_matches"><ellipse cx="416.5998" cy="601.64" fill="#F1F1F1" rx="86.5998" ry="19.72" style="stroke:#181818;stroke-width:0.5;"/><text fill="#000000" font-family="sans-serif" font-size="14" lengthAdjust="spacing" textLength="134" x="349.5998" y="604.4866">Generate matches</text></g><g id="elem_leave_tournament"><ellipse cx="416.728" cy="913.4656" fill="#F1F1F1" rx="85.728" ry="19.5456" style="stroke:#181818;stroke-width:0.5;"/><text fill="#000000" font-family="sans-serif" font-size="14" lengthAdjust="spacing" textLength="132" x="350.728" y="916.3123">Leave tournament</text></g><g id="elem_register_in_tournament"><ellipse cx="416.2923" cy="835.1785" fill="#F1F1F1" rx="101.7923" ry="22.7585" style="stroke:#181818;stroke-width:0.5;"/><text fill="#000000" font-family="sans-serif" font-size="14" lengthAdjust="spacing" textLength="168" x="332.2923" y="838.0251">Register in tournament</text></g><!--entity admin--><g id="elem_admin"><ellipse cx="56" cy="639.92" fill="#F1F1F1" rx="8" ry="8" style="stroke:#181818;stroke-width:0.5;"/><path d="M56,647.92 L56,674.92 M43,655.92 L69,655.92 M56,674.92 L43,689.92 M56,674.92 L69,689.92 " fill="none" style="stroke:#181818;stroke-width:0.5;"/><text fill="#000000" font-family="sans-serif" font-size="14" lengthAdjust="spacing" textLength="100" x="6" y="704.4151">Administrator</text></g><!--entity particip--><g id="elem_particip"><ellipse cx="207" cy="873.92" fill="#F1F1F1" rx="8" ry="8" style="stroke:#181818;stroke-width:0.5;"/><path d="M207,881.92 L207,908.92 M194,889.92 L220,889.92 M207,908.92 L194,923.92 M207,908.92 L220,923.92 " fill="none" style="stroke:#181818;stroke-width:0.5;"/><text fill="#000000" font-family="sans-serif" font-size="14" lengthAdjust="spacing" textLength="80" x="167" y="938.4151">Participant</text></g><!--link choose_tournament_type to create_tournaments--><g id="link_choose_tournament_type_create_tournaments"><path d="M726.5,222.544 C726.5,208.945 726.5,191.12 726.5,176.72 " fill="none" id="choose_tournament_type-to-create_tournaments" style="stroke:#181818;stroke-width:1.0;stroke-dasharray:7.0,7.0;"/><polygon fill="#181818" points="726.5,171.58,722.5,180.58,726.5,176.58,730.5,180.58,726.5,171.58" style="stroke:#181818;stroke-width:1.0;"/><text fill="#000000" font-family="sans-serif" font-size="13" lengthAdjust="spacing" textLength="52" x="689" y="201.7369">extends</text></g><!--link set_dates to create_tournaments--><g id="link_set_dates_create_tournaments"><path d="M512.003,152.81 C550.25,152.56 594.283,152.27 632.387,152.02 " fill="none" id="set_dates-to-create_tournaments" style="stroke:#181818;stroke-width:1.0;stroke-dasharray:7.0,7.0;"/><polygon fill="#181818" points="637.483,151.99,628.4569,148.0492,632.4831,152.0229,628.5095,156.0491,637.483,151.99" style="stroke:#181818;stroke-width:1.0;"/><text fill="#000000" font-family="sans-serif" font-size="13" lengthAdjust="spacing" textLength="52" x="554" y="148.4869">extends</text></g><!--link edit_match_scores to edit_tournament_data--><g id="link_edit_match_scores_edit_tournament_data"><path d="M500.038,308.636 C544.134,310.354 598.273,312.463 642.446,314.184 " fill="none" id="edit_match_scores-to-edit_tournament_data" style="stroke:#181818;stroke-width:1.0;stroke-dasharray:7.0,7.0;"/><polygon fill="#181818" points="647.508,314.381,638.6702,310.0343,642.5118,314.1867,638.3594,318.0282,647.508,314.381" style="stroke:#181818;stroke-width:1.0;"/><text fill="#000000" font-family="sans-serif" font-size="13" lengthAdjust="spacing" textLength="52" x="554" y="307.4869">extends</text></g><!--link record_match_scores to edit_tournament_data--><g id="link_record_match_scores_edit_tournament_data"><path d="M485.855,367.216 C538.306,356.318 610.191,341.38 661.518,330.715 " fill="none" id="record_match_scores-to-edit_tournament_data" style="stroke:#181818;stroke-width:1.0;stroke-dasharray:7.0,7.0;"/><polygon fill="#181818" points="666.419,329.697,656.7935,327.6114,661.5235,330.7141,658.4208,335.4441,666.419,329.697" style="stroke:#181818;stroke-width:1.0;"/><text fill="#000000" font-family="sans-serif" font-size="13" lengthAdjust="spacing" textLength="52" x="554" y="340.4869">extends</text></g><!--link stop_registration to edit_tournament_data--><g id="link_stop_registration_edit_tournament_data"><path d="M465.213,441.007 C483.47,434.766 504.374,427.201 523,419.42 C583.209,394.269 650.348,358.924 690.198,337.131 " fill="none" id="stop_registration-to-edit_tournament_data" style="stroke:#181818;stroke-width:1.0;stroke-dasharray:7.0,7.0;"/><polygon fill="#181818" points="694.921,334.542,685.1064,335.3622,690.5369,336.9462,688.953,342.3767,694.921,334.542" style="stroke:#181818;stroke-width:1.0;"/><text fill="#000000" font-family="sans-serif" font-size="13" lengthAdjust="spacing" textLength="52" x="554" y="379.4869">extends</text></g><!--link archive_tournament to edit_tournament_data--><g id="link_archive_tournament_edit_tournament_data"><path d="M473.992,246.377 C529.791,262.139 614.604,286.096 670.042,301.755 " fill="none" id="archive_tournament-to-edit_tournament_data" style="stroke:#181818;stroke-width:1.0;stroke-dasharray:7.0,7.0;"/><polygon fill="#181818" points="674.98,303.15,667.4073,296.8528,670.1685,301.79,665.2313,304.5512,674.98,303.15" style="stroke:#181818;stroke-width:1.0;"/><text fill="#000000" font-family="sans-serif" font-size="13" lengthAdjust="spacing" textLength="52" x="554" y="265.4869">extends</text></g><!--link admin to create_tournaments--><g id="link_admin_create_tournaments"><path d="M57.1741,631.223 C59.2328,543.202 74.0127,321.964 167,169.42 C204.645,107.66 218.709,84.93 286,58.42 C419.047,6 475.175,25 607,80.42 C638.22,93.55 671.053,113.79 694.221,129.31 " fill="none" id="admin-to-create_tournaments" style="stroke:#181818;stroke-width:1.0;"/><polygon fill="#181818" points="698.432,132.15,693.2093,123.8,694.2874,129.3531,688.7343,130.4313,698.432,132.15" style="stroke:#181818;stroke-width:1.0;"/></g><!--link admin to edit_tournament_data--><g id="link_admin_edit_tournament_data"><path d="M59.1002,631.296 C67.162,526.722 105.5975,235.14 286,114.42 C404.666,35.01 504.095,28.44 607,127.42 C657.256,175.76 592.698,227.57 637,281.42 C644.377,290.387 654.336,297.141 664.915,302.223 " fill="none" id="admin-to-edit_tournament_data" style="stroke:#181818;stroke-width:1.0;"/><polygon fill="#181818" points="669.48,304.3,662.9435,296.9329,664.9286,302.23,659.6315,304.2151,669.48,304.3" style="stroke:#181818;stroke-width:1.0;"/></g><!--link admin to generate_matches--><g id="link_admin_generate_matches"><path d="M106.404,652.505 C116.14,649.536 126.334,646.679 136,644.42 C201.781,629.048 277.595,617.778 333.653,610.641 " fill="none" id="admin-to-generate_matches" style="stroke:#181818;stroke-width:1.0;"/><polygon fill="#181818" points="338.674,610.007,329.2433,607.1676,333.7135,610.6342,330.2469,615.1044,338.674,610.007" style="stroke:#181818;stroke-width:1.0;"/></g><!--link admin to add_sport_game--><g id="link_admin_add_sport_game"><path d="M106.157,636.371 C115.914,630.187 126.18,623.938 136,618.42 C204.947,579.677 292.974,554.839 351.636,541.281 " fill="none" id="admin-to-add_sport_game" style="stroke:#181818;stroke-width:1.0;"/><polygon fill="#181818" points="356.513,540.164,346.8467,538.2763,351.6394,541.2813,348.6344,546.074,356.513,540.164" style="stroke:#181818;stroke-width:1.0;"/></g><!--link admin to view_match_schedule--><g id="link_admin_view_match_schedule"><path d="M56.7273,707.47 C58.2987,783.484 72.7882,955.078 167,1051.42 C209.778,1095.1657 275.646,1117.2204 328.822,1128.3091 " fill="none" id="admin-to-view_match_schedule" style="stroke:#181818;stroke-width:1.0;"/><polygon fill="#181818" points="333.927,1129.3483,325.9071,1123.6316,329.0277,1128.3498,324.3095,1131.4704,333.927,1129.3483" style="stroke:#181818;stroke-width:1.0;"/></g><!--link particip to view_match_schedule--><g id="link_particip_view_match_schedule"><path d="M213.042,941.638 C220.894,985.977 240.225,1058.357 286,1100.42 C299.038,1112.4004 315.631,1120.7068 332.555,1126.464 " fill="none" id="particip-to-view_match_schedule" style="stroke:#181818;stroke-width:1.0;"/><polygon fill="#181818" points="337.334,1128.0212,330.0155,1121.4304,332.5799,1126.4726,327.5377,1129.037,337.334,1128.0212" style="stroke:#181818;stroke-width:1.0;"/></g><!--link admin to view_participant_ranking--><g id="link_admin_view_participant_ranking"><path d="M59.4394,707.67 C65.6973,771.051 87.9584,897.035 167,959.42 C208.181,991.923 265.716,1000.903 315.055,1001.31 " fill="none" id="admin-to-view_participant_ranking" style="stroke:#181818;stroke-width:1.0;"/><polygon fill="#181818" points="320.108,1001.322,311.1183,997.2989,315.108,1001.3091,311.0977,1005.2988,320.108,1001.322" style="stroke:#181818;stroke-width:1.0;"/></g><!--link particip to view_participant_ranking--><g id="link_particip_view_participant_ranking"><path d="M247.1,929.441 C259.244,936.843 272.89,944.495 286,950.42 C304.127,958.612 324.368,965.857 343.362,971.89 " fill="none" id="particip-to-view_participant_ranking" style="stroke:#181818;stroke-width:1.0;"/><polygon fill="#181818" points="348.162,973.397,340.7747,966.8834,343.3919,971.8984,338.3769,974.5156,348.162,973.397" style="stroke:#181818;stroke-width:1.0;"/></g><!--link admin to create_team--><g id="link_admin_create_team"><path d="M57.3511,707.642 C60.2423,777.918 77.263,927.235 167,1001.42 C216.361,1042.227 288.548,1057.705 342.415,1063.431 " fill="none" id="admin-to-create_team" style="stroke:#181818;stroke-width:1.0;"/><polygon fill="#181818" points="347.569,1063.955,339.0197,1059.0652,342.5946,1063.4493,338.2106,1067.0242,347.569,1063.955" style="stroke:#181818;stroke-width:1.0;"/></g><!--link particip to create_team--><g id="link_particip_create_team"><path d="M221.748,941.435 C234.184,970.537 255.289,1009.466 286,1032.42 C303.754,1045.69 326.249,1053.791 347.49,1058.734 " fill="none" id="particip-to-create_team" style="stroke:#181818;stroke-width:1.0;"/><polygon fill="#181818" points="352.571,1059.863,344.6525,1054.0066,347.69,1058.7788,342.9178,1061.8163,352.571,1059.863" style="stroke:#181818;stroke-width:1.0;"/></g><!--link admin to view_participant_profile--><g id="link_admin_view_participant_profile"><path d="M106.096,680.924 C165.836,694.921 267.422,718.724 337.816,735.218 " fill="none" id="admin-to-view_participant_profile" style="stroke:#181818;stroke-width:1.0;"/><polygon fill="#181818" points="342.829,736.392,334.978,730.4455,337.9607,735.2521,333.1541,738.2348,342.829,736.392" style="stroke:#181818;stroke-width:1.0;"/></g><!--link particip to view_participant_profile--><g id="link_particip_view_participant_profile"><path d="M227.343,865.385 C240.902,842.187 261.041,813.598 286,795.42 C300.233,785.054 317.148,777.165 333.98,771.188 " fill="none" id="particip-to-view_participant_profile" style="stroke:#181818;stroke-width:1.0;"/><polygon fill="#181818" points="338.723,769.553,328.9107,768.7053,333.9961,771.1829,331.5185,776.2683,338.723,769.553" style="stroke:#181818;stroke-width:1.0;"/></g><!--link admin to view_match_scores--><g id="link_admin_view_match_scores"><path d="M106.096,670.242 C162.259,671.182 255.406,672.741 324.851,673.903 " fill="none" id="admin-to-view_match_scores" style="stroke:#181818;stroke-width:1.0;"/><polygon fill="#181818" points="330.229,673.993,321.2977,669.8419,325.2297,673.9087,321.1629,677.8407,330.229,673.993" style="stroke:#181818;stroke-width:1.0;"/></g><!--link particip to view_match_scores--><g id="link_particip_view_match_scores"><path d="M213.501,865.079 C221.716,821.872 241.321,752.46 286,712.42 C299.847,700.01 317.588,691.74 335.467,686.235 " fill="none" id="particip-to-view_match_scores" style="stroke:#181818;stroke-width:1.0;"/><polygon fill="#181818" points="340.51,684.755,330.7476,683.4526,335.7125,686.1637,333.0015,691.1286,340.51,684.755" style="stroke:#181818;stroke-width:1.0;"/></g><!--link particip to register_in_tournament--><g id="link_particip_register_in_tournament"><path d="M247.211,889.619 C259.596,885.321 273.349,880.611 286,876.42 C307.035,869.451 330.076,862.074 350.816,855.527 " fill="none" id="particip-to-register_in_tournament" style="stroke:#181818;stroke-width:1.0;"/><polygon fill="#181818" points="355.757,853.969,345.9706,852.8619,350.9886,855.4732,348.3773,860.4913,355.757,853.969" style="stroke:#181818;stroke-width:1.0;"/></g><!--link particip to leave_tournament--><g id="link_particip_leave_tournament"><path d="M247.029,905.301 C269.686,906.393 299.198,907.815 327.179,909.164 " fill="none" id="particip-to-leave_tournament" style="stroke:#181818;stroke-width:1.0;"/><polygon fill="#181818" points="332.384,909.414,323.5876,904.9841,327.3898,909.1726,323.2014,912.9748,332.384,909.414" style="stroke:#181818;stroke-width:1.0;"/></g><!--SRC=[fLRFgzGm4BxthnXMy9tMlNiG5X4l7iGddeGIccaRR9EGJ9-A-ByxIRlRDEakFjvUbdpVVFChaw43jWHamAck9v3AOKFAwAeI3Ha7PpaghJmv4Kx2WmZ0GduMZbIZhD0KABiSgoeu4ReR40vVpUIq656JXxDpZA8xm9yA-3TvR8Hde_SE1I6dSR4z17zDHEiLzPcgDuR_lJMEJXrRpAg89ggQVbkCodqAZh7suxkTWF1gK1hVIE5xbF0My1UXbbaUZqZWYOk7ry0iI7RYOouUgOwdABYUuFYiODje7wIYl5F8M5eMHn4xgb5GquDlZ5loYxg8rZCQHGKQyzsByL_j-OBiH9R1NSJBy3luon9u96FPQpUFCG_tV3UCrYawtr6ElYpqsJMzUYecMynmuZBAIlZPqRVXlodyMJR-YT6oxLkHJPusFzeVIdUhDY7hXRmJbnES1YmZptZMBodpzooah2DK1wYgxYVBMyYPLgNnqcmNSd_xe1WtUuVFMyEFgD45qrZ2qirk0Ui5t4e-eIYlVmXWVld9UmdJXmwKpeLkeMgbS_b3Ck-gqp3Pe9UgRT6npNUT35LmtFFYv1EGMlhiMJNPwYzl_h3YR-oeXDnTEYjTz6MbyYkzC4pjJSZb0k6MmUhvvdYMFlQioih336oqAN4dxcNGxiUzM6MEDc_pTlMHtl8t1cHZKqnVLJr0V4V9Y4WaeGP_PRZS7BF2qwcPN1YlqsGRCt8H7QJ3mgQSOrY0ZT6jSkEyKd5aFv2a2or_JR03g-QLEnSAgzChv_y1]--></g></svg>