<?xml version="1.0" encoding="us-ascii" standalone="no"?><svg xmlns="http://www.w3.org/2000/svg" xmlns:xlink="http://www.w3.org/1999/xlink" contentStyleType="text/css" height="866px" preserveAspectRatio="none" style="width:868px;height:866px;background:#FFFFFF;" version="1.1" viewBox="0 0 868 866" width="868px" zoomAndPan="magnify"><defs/><g><!--cluster Tournaments Arranger--><g id="cluster_Tournaments Arranger"><rect fill="none" height="853" rx="2.5" ry="2.5" style="stroke:#181818;stroke-width:1.0;" width="568" x="294" y="7"/><text fill="#000000" font-family="sans-serif" font-size="14" font-weight="bold" lengthAdjust="spacing" textLength="185" x="485.5" y="21.9951">Tournaments Arranger</text></g><g id="elem_create_tournaments"><ellipse cx="418.7915" cy="135.1583" fill="#F1F1F1" rx="88.7915" ry="20.1583" style="stroke:#181818;stroke-width:0.5;"/><text fill="#000000" font-family="sans-serif" font-size="14" lengthAdjust="spacing" textLength="139" x="349.2915" y="138.005">Create tournament</text></g><g id="elem_edit_tournament_data"><ellipse cx="419.1963" cy="60.9393" fill="#F1F1F1" rx="80.1963" ry="18.4393" style="stroke:#181818;stroke-width:0.5;"/><text fill="#000000" font-family="sans-serif" font-size="14" lengthAdjust="spacing" textLength="119" x="358.1039" y="64.2979">Edit tournament</text></g><g id="elem_edit_match_scores"><ellipse cx="751.9263" cy="288.7853" fill="#F1F1F1" rx="84.4263" ry="19.2853" style="stroke:#181818;stroke-width:0.5;"/><text fill="#000000" font-family="sans-serif" font-size="14" lengthAdjust="spacing" textLength="129" x="687.305" y="291.6739">Edit match scores</text></g><g id="elem_record_match_scores"><ellipse cx="752.1163" cy="213.2233" fill="#F1F1F1" rx="94.1163" ry="21.2233" style="stroke:#181818;stroke-width:0.5;"/><text fill="#000000" font-family="sans-serif" font-size="14" lengthAdjust="spacing" textLength="151" x="676.6163" y="216.0699">Record match scores</text></g><g id="elem_stop_registration"><ellipse cx="751.788" cy="137.8576" fill="#F1F1F1" rx="82.288" ry="18.8576" style="stroke:#181818;stroke-width:0.5;"/><text fill="#000000" font-family="sans-serif" font-size="14" lengthAdjust="spacing" textLength="124" x="688.9505" y="140.9838">Stop registration</text></g><g id="elem_archive_tournament"><ellipse cx="751.9996" cy="63.0999" fill="#F1F1F1" rx="90.9996" ry="20.5999" style="stroke:#181818;stroke-width:0.5;"/><text fill="#000000" font-family="sans-serif" font-size="14" lengthAdjust="spacing" textLength="144" x="679.9996" y="65.9466">Archive tournament</text></g><g id="elem_view_match_scores"><ellipse cx="419.0998" cy="355.22" fill="#F1F1F1" rx="86.5998" ry="19.72" style="stroke:#181818;stroke-width:0.5;"/><text fill="#000000" font-family="sans-serif" font-size="14" lengthAdjust="spacing" textLength="134" x="352.0998" y="358.0666">View match scores</text></g><g id="elem_view_participant_ranking"><ellipse cx="419.1316" cy="434.2263" fill="#F1F1F1" rx="109.1316" ry="24.2263" style="stroke:#181818;stroke-width:0.5;"/><text fill="#000000" font-family="sans-serif" font-size="14" lengthAdjust="spacing" textLength="184" x="327.1316" y="437.073">View participant rankings</text></g><g id="elem_view_match_schedule"><ellipse cx="418.8371" cy="516.1674" fill="#F1F1F1" rx="101.3371" ry="22.6674" style="stroke:#181818;stroke-width:0.5;"/><text fill="#000000" font-family="sans-serif" font-size="14" lengthAdjust="spacing" textLength="167" x="335.3371" y="519.0141">View matches schedule</text></g><g id="elem_add_sport_game"><ellipse cx="418.9652" cy="208.193" fill="#F1F1F1" rx="78.9652" ry="18.193" style="stroke:#181818;stroke-width:0.5;"/><text fill="#000000" font-family="sans-serif" font-size="14" lengthAdjust="spacing" textLength="116" x="358.9" y="211.6886">Add sport/game</text></g><g id="elem_view_participant_profile"><ellipse cx="419.1608" cy="752.0322" fill="#F1F1F1" rx="103.1608" ry="23.0322" style="stroke:#181818;stroke-width:0.5;"/><text fill="#000000" font-family="sans-serif" font-size="14" lengthAdjust="spacing" textLength="171" x="333.6608" y="754.8788">View participant profile</text></g><g id="elem_create_team"><ellipse cx="418.8288" cy="826.7658" fill="#F1F1F1" rx="69.3288" ry="16.2658" style="stroke:#181818;stroke-width:0.5;"/><text fill="#000000" font-family="sans-serif" font-size="14" lengthAdjust="spacing" textLength="91" x="370.3288" y="830.5133">Create team</text></g><g id="elem_generate_matches"><ellipse cx="419.0998" cy="281.22" fill="#F1F1F1" rx="86.5998" ry="19.72" style="stroke:#181818;stroke-width:0.5;"/><text fill="#000000" font-family="sans-serif" font-size="14" lengthAdjust="spacing" textLength="134" x="352.0998" y="284.0666">Generate matches</text></g><g id="elem_leave_tournament"><ellipse cx="419.228" cy="593.0456" fill="#F1F1F1" rx="85.728" ry="19.5456" style="stroke:#181818;stroke-width:0.5;"/><text fill="#000000" font-family="sans-serif" font-size="14" lengthAdjust="spacing" textLength="132" x="353.228" y="595.8923">Leave tournament</text></g><g id="elem_register_in_tournament"><ellipse cx="418.7923" cy="670.7585" fill="#F1F1F1" rx="101.7923" ry="22.7585" style="stroke:#181818;stroke-width:0.5;"/><text fill="#000000" font-family="sans-serif" font-size="14" lengthAdjust="spacing" textLength="168" x="334.7923" y="673.6051">Register in tournament</text></g><!--entity admin--><g id="elem_admin"><ellipse cx="56" cy="319.5" fill="#F1F1F1" rx="8" ry="8" style="stroke:#181818;stroke-width:0.5;"/><path d="M56,327.5 L56,354.5 M43,335.5 L69,335.5 M56,354.5 L43,369.5 M56,354.5 L69,369.5 " fill="none" style="stroke:#181818;stroke-width:0.5;"/><text fill="#000000" font-family="sans-serif" font-size="14" lengthAdjust="spacing" textLength="100" x="6" y="383.9951">Administrator</text></g><!--entity particip--><g id="elem_particip"><ellipse cx="207" cy="575.5" fill="#F1F1F1" rx="8" ry="8" style="stroke:#181818;stroke-width:0.5;"/><path d="M207,583.5 L207,610.5 M194,591.5 L220,591.5 M207,610.5 L194,625.5 M207,610.5 L220,625.5 " fill="none" style="stroke:#181818;stroke-width:0.5;"/><text fill="#000000" font-family="sans-serif" font-size="14" lengthAdjust="spacing" textLength="80" x="167" y="639.9951">Participant</text></g><!--reverse link edit_tournament_data to edit_match_scores--><g id="link_edit_tournament_data_edit_match_scores"><path d="M489.673,73.351 C503.844,78.643 517.581,86.202 528,97 C560.812,131.004 528.113,162.398 558,199 C591.204,239.665 646.954,262.908 690.022,275.545 " fill="none" id="edit_tournament_data-backto-edit_match_scores" style="stroke:#181818;stroke-width:1.0;stroke-dasharray:7.0,7.0;"/><polygon fill="#181818" points="484.854,71.641,491.9969,78.4218,489.5658,73.314,494.6736,70.8829,484.854,71.641" style="stroke:#181818;stroke-width:1.0;"/><text fill="#000000" font-family="sans-serif" font-size="13" lengthAdjust="spacing" textLength="68" x="559" y="195.0669">&#171;extends&#187;</text></g><!--reverse link edit_tournament_data to record_match_scores--><g id="link_edit_tournament_data_record_match_scores"><path d="M482.615,75.235 C498.274,80.53 514.452,87.619 528,97 C545.405,109.052 541.007,121.374 558,134 C597.96,163.69 650.672,184.277 690.91,196.974 " fill="none" id="edit_tournament_data-backto-record_match_scores" style="stroke:#181818;stroke-width:1.0;stroke-dasharray:7.0,7.0;"/><polygon fill="#181818" points="477.775,73.649,485.0794,80.2555,482.5258,75.2078,487.5735,72.6543,477.775,73.649" style="stroke:#181818;stroke-width:1.0;"/><text fill="#000000" font-family="sans-serif" font-size="13" lengthAdjust="spacing" textLength="68" x="559" y="130.0669">&#171;extends&#187;</text></g><!--reverse link edit_tournament_data to stop_registration--><g id="link_edit_tournament_data_stop_registration"><path d="M481.182,75.233 C541.757,89.324 633.808,110.738 693.183,124.55 " fill="none" id="edit_tournament_data-backto-stop_registration" style="stroke:#181818;stroke-width:1.0;stroke-dasharray:7.0,7.0;"/><polygon fill="#181818" points="476.15,74.062,484.0097,79.9971,481.02,75.1949,485.8222,72.2052,476.15,74.062" style="stroke:#181818;stroke-width:1.0;"/><text fill="#000000" font-family="sans-serif" font-size="13" lengthAdjust="spacing" textLength="68" x="559" y="91.0669">&#171;extends&#187;</text></g><!--reverse link edit_tournament_data to archive_tournament--><g id="link_edit_tournament_data_archive_tournament"><path d="M504.466,61.51 C552.336,61.8 612.213,62.161 660.97,62.456 " fill="none" id="edit_tournament_data-backto-archive_tournament" style="stroke:#181818;stroke-width:1.0;stroke-dasharray:7.0,7.0;"/><polygon fill="#181818" points="499.283,61.479,508.2588,65.5329,504.2829,61.509,508.3068,57.5331,499.283,61.479" style="stroke:#181818;stroke-width:1.0;"/><text fill="#000000" font-family="sans-serif" font-size="13" lengthAdjust="spacing" textLength="68" x="559" y="58.0669">&#171;extends&#187;</text></g><!--link admin to create_tournaments--><g id="link_admin_create_tournaments"><path d="M90.73,310.892 C111.46,288.715 139.283,261.07 167,240 C215.494,203.136 229.804,195.509 286,172 C306.428,163.454 329.443,156.233 350.467,150.502 " fill="none" id="admin-to-create_tournaments" style="stroke:#181818;stroke-width:1.0;"/><polygon fill="#181818" points="355.482,149.152,345.752,147.6266,350.6536,150.4505,347.8296,155.3521,355.482,149.152" style="stroke:#181818;stroke-width:1.0;"/></g><!--link admin to edit_tournament_data--><g id="link_admin_edit_tournament_data"><path d="M78.3918,310.709 C98.6137,276.412 131.135,225.836 167,188 C212.804,139.679 226.327,126.531 286,97 C306.386,86.911 329.99,79.333 351.552,73.799 " fill="none" id="admin-to-edit_tournament_data" style="stroke:#181818;stroke-width:1.0;"/><polygon fill="#181818" points="356.407,72.578,346.7035,70.8924,351.5578,73.7967,348.6534,78.6511,356.407,72.578" style="stroke:#181818;stroke-width:1.0;"/></g><!--link admin to generate_matches--><g id="link_admin_generate_matches"><path d="M106.402,332.075 C116.138,329.107 126.333,326.252 136,324 C202.484,308.51 279.129,297.235 335.718,290.126 " fill="none" id="admin-to-generate_matches" style="stroke:#181818;stroke-width:1.0;"/><polygon fill="#181818" points="340.786,289.494,331.3603,286.6382,335.8244,290.1126,332.35,294.5767,340.786,289.494" style="stroke:#181818;stroke-width:1.0;"/></g><!--link admin to add_sport_game--><g id="link_admin_add_sport_game"><path d="M106.157,315.951 C115.914,309.767 126.18,303.518 136,298 C205.506,258.943 294.333,234.171 353.538,220.715 " fill="none" id="admin-to-add_sport_game" style="stroke:#181818;stroke-width:1.0;"/><polygon fill="#181818" points="358.46,219.607,348.8015,217.6798,353.5819,220.7044,350.5573,225.4847,358.46,219.607" style="stroke:#181818;stroke-width:1.0;"/></g><!--link admin to view_match_schedule--><g id="link_admin_view_match_schedule"><path d="M106.386,380.425 C151.751,408.301 221.524,448.717 286,476 C305.395,484.207 327.044,491.496 347.108,497.529 " fill="none" id="admin-to-view_match_schedule" style="stroke:#181818;stroke-width:1.0;"/><polygon fill="#181818" points="351.901,498.956,344.4168,492.5539,347.1089,497.5291,342.1337,500.2212,351.901,498.956" style="stroke:#181818;stroke-width:1.0;"/></g><!--link particip to view_match_schedule--><g id="link_particip_view_match_schedule"><path d="M247.336,577.439 C259.374,569.796 272.903,561.968 286,556 C304.782,547.441 325.881,540.111 345.607,534.153 " fill="none" id="particip-to-view_match_schedule" style="stroke:#181818;stroke-width:1.0;"/><polygon fill="#181818" points="350.59,532.668,340.8223,531.4063,345.7984,534.0966,343.1081,539.0728,350.59,532.668" style="stroke:#181818;stroke-width:1.0;"/></g><!--link admin to view_participant_ranking--><g id="link_admin_view_participant_ranking"><path d="M106.062,360.552 C165.929,374.648 267.931,398.665 338.931,415.383 " fill="none" id="admin-to-view_participant_ranking" style="stroke:#181818;stroke-width:1.0;"/><polygon fill="#181818" points="343.988,416.573,336.144,410.6172,339.121,415.4273,334.3109,418.4044,343.988,416.573" style="stroke:#181818;stroke-width:1.0;"/></g><!--link particip to view_participant_ranking--><g id="link_particip_view_participant_ranking"><path d="M222.336,566.821 C234.986,538.021 256.094,499.572 286,476 C299.351,465.477 315.393,457.563 331.622,451.619 " fill="none" id="particip-to-view_participant_ranking" style="stroke:#181818;stroke-width:1.0;"/><polygon fill="#181818" points="336.662,449.837,326.8435,449.0638,331.9476,451.5027,329.5087,456.6068,336.662,449.837" style="stroke:#181818;stroke-width:1.0;"/></g><!--link admin to create_team--><g id="link_admin_create_team"><path d="M58.8402,387.226 C64.2057,460.085 85.1752,620.593 167,722 C213.141,779.1835 295.883,805.6417 353.709,817.6009 " fill="none" id="admin-to-create_team" style="stroke:#181818;stroke-width:1.0;"/><polygon fill="#181818" points="358.875,818.6446,350.8452,812.9418,353.974,817.6546,349.2612,820.7834,358.875,818.6446" style="stroke:#181818;stroke-width:1.0;"/></g><!--link particip to create_team--><g id="link_particip_create_team"><path d="M213.568,643.343 C221.819,686.101 241.433,754.319 286,793 C303.031,807.7814 325.673,816.2695 347.388,821.1013 " fill="none" id="particip-to-create_team" style="stroke:#181818;stroke-width:1.0;"/><polygon fill="#181818" points="352.297,822.136,344.3157,816.3655,347.4045,821.1046,342.6654,824.1934,352.297,822.136" style="stroke:#181818;stroke-width:1.0;"/></g><!--link admin to view_participant_profile--><g id="link_admin_view_participant_profile"><path d="M60.6044,387.175 C68.6056,451.558 93.4031,582.383 167,661 C207.968,704.762 271.602,727.533 324.545,739.352 " fill="none" id="admin-to-view_participant_profile" style="stroke:#181818;stroke-width:1.0;"/><polygon fill="#181818" points="329.634,740.462,321.6932,734.6358,324.7489,739.3964,319.9883,742.452,329.634,740.462" style="stroke:#181818;stroke-width:1.0;"/></g><!--link particip to view_participant_profile--><g id="link_particip_view_participant_profile"><path d="M236.683,643.068 C249.513,660.314 264.709,681.045 278,700 C281.68,705.248 280.853,708.18 286,712 C299.94,722.347 316.572,730.042 333.252,735.756 " fill="none" id="particip-to-view_participant_profile" style="stroke:#181818;stroke-width:1.0;"/><polygon fill="#181818" points="338.427,737.467,331.1382,730.8433,333.6799,735.897,328.6262,738.4387,338.427,737.467" style="stroke:#181818;stroke-width:1.0;"/></g><!--link admin to view_match_scores--><g id="link_admin_view_match_scores"><path d="M106.062,349.815 C162.823,350.759 257.46,352.332 327.639,353.498 " fill="none" id="admin-to-view_match_scores" style="stroke:#181818;stroke-width:1.0;"/><polygon fill="#181818" points="332.649,353.581,323.7165,349.4324,327.6497,353.4982,323.584,357.4313,332.649,353.581" style="stroke:#181818;stroke-width:1.0;"/></g><!--link particip to view_match_scores--><g id="link_particip_view_match_scores"><path d="M211.672,566.756 C218.272,519.316 236.467,439.077 286,393 C300.125,379.861 318.503,371.231 337.037,365.573 " fill="none" id="particip-to-view_match_scores" style="stroke:#181818;stroke-width:1.0;"/><polygon fill="#181818" points="342.265,364.054,332.5062,362.7252,337.4637,365.4497,334.7393,370.4072,342.265,364.054" style="stroke:#181818;stroke-width:1.0;"/></g><!--link particip to register_in_tournament--><g id="link_particip_register_in_tournament"><path d="M247.259,617.659 C259.646,621.633 273.388,626.02 286,630 C307.807,636.881 331.67,644.321 353.035,650.949 " fill="none" id="particip-to-register_in_tournament" style="stroke:#181818;stroke-width:1.0;"/><polygon fill="#181818" points="357.838,652.439,350.4272,645.9521,353.0625,650.9576,348.057,653.593,357.838,652.439" style="stroke:#181818;stroke-width:1.0;"/></g><!--link particip to leave_tournament--><g id="link_particip_leave_tournament"><path d="M247.007,602.771 C270.554,601.425 301.547,599.654 330.672,597.99 " fill="none" id="particip-to-leave_tournament" style="stroke:#181818;stroke-width:1.0;"/><polygon fill="#181818" points="335.706,597.702,326.4931,594.2202,330.7141,597.9863,326.948,602.2073,335.706,597.702" style="stroke:#181818;stroke-width:1.0;"/></g><!--SRC=[hLJ1QkGm3BtdAyJqFDjxAGF3ikobXzAMlHeHgndJZ1DaJxjG-kyhEmcnuwGBfJa4_9wUz6p9RkdPW- -0JNFoe0rJxKrdgmfhtp4SzTbOupnZMA433C18tYDxKviUhGzKFowhAYH1sxG4kwVkmXRFPBs38xEWn3juhq2-YwCQdGJzP49FOcEAtOLyTKJLZBegb_tInYz595WYKHezhgZEwEiJkBfZShCkecf0ewX0ON_fzuVLAd3L6ai_DBeJQRY1srlwwybgTpZa1Xv8KkdI0aUyDB62VuUDHz_rahiPkYizZoQSe2f5ewX0lyF0aUkJUItQZWESf8so4lwYXzp47qDlPIjU1IqRaOlwPFfbhb-CRH9nmggHtIeixNJorvUMok83lZWuhS7r7VlhHhOy79hMAa8gGDL_xFRSFPkqMkfs9DTlAE4vkvkopWD_aoKEeUFMOdGpWce4SyaTOJa5RG2NCv1SeJ2An63iKiWZfOnDvH_oeeMd2_OoCYiloqoklY0pNUnbffPDc1YXrdew7Jfi1SoPDqUgpB4MLUuyz2tJfiGdTQVX-Bpk5BL8b5sexTr7EkStcfh5B2Vc7m00]--></g></svg>