<?xml version="1.0" encoding="us-ascii" standalone="no"?><svg xmlns="http://www.w3.org/2000/svg" xmlns:xlink="http://www.w3.org/1999/xlink" contentStyleType="text/css" height="863px" preserveAspectRatio="none" style="width:850px;height:863px;background:#FFFFFF;" version="1.1" viewBox="0 0 850 863" width="850px" zoomAndPan="magnify"><defs/><g><!--cluster Tournaments Arranger--><g id="cluster_Tournaments Arranger"><rect fill="none" height="850" rx="2.5" ry="2.5" style="stroke:#181818;stroke-width:1.0;" width="550" x="294" y="7"/><text fill="#000000" font-family="sans-serif" font-size="14" font-weight="bold" lengthAdjust="spacing" textLength="185" x="476.5" y="21.9951">Tournaments Arranger</text></g><g id="elem_create_tournaments"><ellipse cx="416.2915" cy="135.1583" fill="#F1F1F1" rx="88.7915" ry="20.1583" style="stroke:#181818;stroke-width:0.5;"/><text fill="#000000" font-family="sans-serif" font-size="14" lengthAdjust="spacing" textLength="139" x="346.7915" y="138.005">Create tournament</text></g><g id="elem_set_dates"><ellipse cx="732.4604" cy="363.9921" fill="#F1F1F1" rx="95.4604" ry="21.4921" style="stroke:#181818;stroke-width:0.5;"/><text fill="#000000" font-family="sans-serif" font-size="14" lengthAdjust="spacing" textLength="154" x="655.4604" y="366.8388">Set start &amp; end dates</text></g><g id="elem_edit_tournament_data"><ellipse cx="416.6963" cy="60.9393" fill="#F1F1F1" rx="80.1963" ry="18.4393" style="stroke:#181818;stroke-width:0.5;"/><text fill="#000000" font-family="sans-serif" font-size="14" lengthAdjust="spacing" textLength="119" x="355.6039" y="64.2979">Edit tournament</text></g><g id="elem_edit_match_scores"><ellipse cx="732.4263" cy="211.7853" fill="#F1F1F1" rx="84.4263" ry="19.2853" style="stroke:#181818;stroke-width:0.5;"/><text fill="#000000" font-family="sans-serif" font-size="14" lengthAdjust="spacing" textLength="129" x="667.805" y="214.6739">Edit match scores</text></g><g id="elem_record_match_scores"><ellipse cx="732.6163" cy="136.2233" fill="#F1F1F1" rx="94.1163" ry="21.2233" style="stroke:#181818;stroke-width:0.5;"/><text fill="#000000" font-family="sans-serif" font-size="14" lengthAdjust="spacing" textLength="151" x="657.1163" y="139.0699">Record match scores</text></g><g id="elem_stop_registration"><ellipse cx="732.288" cy="60.8576" fill="#F1F1F1" rx="82.288" ry="18.8576" style="stroke:#181818;stroke-width:0.5;"/><text fill="#000000" font-family="sans-serif" font-size="14" lengthAdjust="spacing" textLength="124" x="669.4505" y="63.9838">Stop registration</text></g><g id="elem_archive_tournament"><ellipse cx="732.4996" cy="287.0999" fill="#F1F1F1" rx="90.9996" ry="20.5999" style="stroke:#181818;stroke-width:0.5;"/><text fill="#000000" font-family="sans-serif" font-size="14" lengthAdjust="spacing" textLength="144" x="660.4996" y="289.9466">Archive tournament</text></g><g id="elem_view_match_scores"><ellipse cx="416.5998" cy="355.22" fill="#F1F1F1" rx="86.5998" ry="19.72" style="stroke:#181818;stroke-width:0.5;"/><text fill="#000000" font-family="sans-serif" font-size="14" lengthAdjust="spacing" textLength="134" x="349.5998" y="358.0666">View match scores</text></g><g id="elem_view_participant_ranking"><ellipse cx="416.4086" cy="433.0817" fill="#F1F1F1" rx="105.9086" ry="23.5817" style="stroke:#181818;stroke-width:0.5;"/><text fill="#000000" font-family="sans-serif" font-size="14" lengthAdjust="spacing" textLength="177" x="327.9086" y="435.9284">View participant ranking</text></g><g id="elem_view_match_schedule"><ellipse cx="416.6163" cy="513.2233" fill="#F1F1F1" rx="94.1163" ry="21.2233" style="stroke:#181818;stroke-width:0.5;"/><text fill="#000000" font-family="sans-serif" font-size="14" lengthAdjust="spacing" textLength="151" x="341.1163" y="516.0699">View match schedule</text></g><g id="elem_add_sport_game"><ellipse cx="416.4652" cy="208.193" fill="#F1F1F1" rx="78.9652" ry="18.193" style="stroke:#181818;stroke-width:0.5;"/><text fill="#000000" font-family="sans-serif" font-size="14" lengthAdjust="spacing" textLength="116" x="356.4" y="211.6886">Add sport/game</text></g><g id="elem_view_participant_profile"><ellipse cx="416.3679" cy="749.1736" fill="#F1F1F1" rx="106.3679" ry="23.6736" style="stroke:#181818;stroke-width:0.5;"/><text fill="#000000" font-family="sans-serif" font-size="14" lengthAdjust="spacing" textLength="178" x="327.3679" y="752.0203">View participants profile</text></g><g id="elem_create_team"><ellipse cx="416.3288" cy="823.7658" fill="#F1F1F1" rx="69.3288" ry="16.2658" style="stroke:#181818;stroke-width:0.5;"/><text fill="#000000" font-family="sans-serif" font-size="14" lengthAdjust="spacing" textLength="91" x="367.8288" y="827.5133">Create team</text></g><g id="elem_generate_matches"><ellipse cx="416.5998" cy="281.22" fill="#F1F1F1" rx="86.5998" ry="19.72" style="stroke:#181818;stroke-width:0.5;"/><text fill="#000000" font-family="sans-serif" font-size="14" lengthAdjust="spacing" textLength="134" x="349.5998" y="284.0666">Generate matches</text></g><g id="elem_leave_tournament"><ellipse cx="416.728" cy="589.0456" fill="#F1F1F1" rx="85.728" ry="19.5456" style="stroke:#181818;stroke-width:0.5;"/><text fill="#000000" font-family="sans-serif" font-size="14" lengthAdjust="spacing" textLength="132" x="350.728" y="591.8923">Leave tournament</text></g><g id="elem_register_in_tournament"><ellipse cx="416.2923" cy="666.7585" fill="#F1F1F1" rx="101.7923" ry="22.7585" style="stroke:#181818;stroke-width:0.5;"/><text fill="#000000" font-family="sans-serif" font-size="14" lengthAdjust="spacing" textLength="168" x="332.2923" y="669.6051">Register in tournament</text></g><!--entity admin--><g id="elem_admin"><ellipse cx="56" cy="319.5" fill="#F1F1F1" rx="8" ry="8" style="stroke:#181818;stroke-width:0.5;"/><path d="M56,327.5 L56,354.5 M43,335.5 L69,335.5 M56,354.5 L43,369.5 M56,354.5 L69,369.5 " fill="none" style="stroke:#181818;stroke-width:0.5;"/><text fill="#000000" font-family="sans-serif" font-size="14" lengthAdjust="spacing" textLength="100" x="6" y="383.9951">Administrator</text></g><!--entity particip--><g id="elem_particip"><ellipse cx="207" cy="574.5" fill="#F1F1F1" rx="8" ry="8" style="stroke:#181818;stroke-width:0.5;"/><path d="M207,582.5 L207,609.5 M194,590.5 L220,590.5 M207,609.5 L194,624.5 M207,609.5 L220,624.5 " fill="none" style="stroke:#181818;stroke-width:0.5;"/><text fill="#000000" font-family="sans-serif" font-size="14" lengthAdjust="spacing" textLength="80" x="167" y="638.9951">Participant</text></g><!--reverse link create_tournaments to set_dates--><g id="link_create_tournaments_set_dates"><path d="M488.548,149.952 C501.243,155.229 513.447,162.363 523,172 C552.09,201.346 528.978,226.379 553,260 C580.443,298.409 596.152,301.341 637,325 C650.515,332.828 665.905,339.883 680.284,345.771 " fill="none" id="create_tournaments-backto-set_dates" style="stroke:#181818;stroke-width:1.0;stroke-dasharray:7.0,7.0;"/><polygon fill="#181818" points="483.853,148.09,490.7454,155.1252,488.5011,149.9327,493.6937,147.6883,483.853,148.09" style="stroke:#181818;stroke-width:1.0;"/><text fill="#000000" font-family="sans-serif" font-size="13" lengthAdjust="spacing" textLength="52" x="554" y="256.0669">extends</text></g><!--reverse link edit_tournament_data to edit_match_scores--><g id="link_edit_tournament_data_edit_match_scores"><path d="M478.159,75.73 C493.535,81.029 509.504,87.997 523,97 C539.764,108.184 537.086,118.637 553,131 C586.121,156.73 598.838,156.603 637,174 C653.412,181.482 671.747,189.034 687.869,195.413 " fill="none" id="edit_tournament_data-backto-edit_match_scores" style="stroke:#181818;stroke-width:1.0;stroke-dasharray:7.0,7.0;"/><polygon fill="#181818" points="473.409,74.139,480.672,80.7909,478.15,75.7274,483.2135,73.2054,473.409,74.139" style="stroke:#181818;stroke-width:1.0;"/><text fill="#000000" font-family="sans-serif" font-size="13" lengthAdjust="spacing" textLength="52" x="554" y="127.0669">extends</text></g><!--reverse link edit_tournament_data to record_match_scores--><g id="link_edit_tournament_data_record_match_scores"><path d="M478.105,75.476 C532.574,88.486 612.295,107.528 667.719,120.766 " fill="none" id="edit_tournament_data-backto-record_match_scores" style="stroke:#181818;stroke-width:1.0;stroke-dasharray:7.0,7.0;"/><polygon fill="#181818" points="472.914,74.236,480.739,80.2168,477.7773,75.3972,482.5969,72.4355,472.914,74.236" style="stroke:#181818;stroke-width:1.0;"/><text fill="#000000" font-family="sans-serif" font-size="13" lengthAdjust="spacing" textLength="52" x="554" y="91.0669">extends</text></g><!--reverse link edit_tournament_data to stop_registration--><g id="link_edit_tournament_data_stop_registration"><path d="M501.993,61 C547.888,61 604.376,61 649.826,61 " fill="none" id="edit_tournament_data-backto-stop_registration" style="stroke:#181818;stroke-width:1.0;stroke-dasharray:7.0,7.0;"/><polygon fill="#181818" points="496.735,61,505.735,65,501.735,61,505.735,57,496.735,61" style="stroke:#181818;stroke-width:1.0;"/><text fill="#000000" font-family="sans-serif" font-size="13" lengthAdjust="spacing" textLength="52" x="554" y="57.0669">extends</text></g><!--reverse link edit_tournament_data to archive_tournament--><g id="link_edit_tournament_data_archive_tournament"><path d="M485.301,73.903 C499.157,79.166 512.648,86.574 523,97 C552.708,126.92 528.216,152.89 553,187 C583.38,228.812 636.888,255.399 677.42,270.56 " fill="none" id="edit_tournament_data-backto-archive_tournament" style="stroke:#181818;stroke-width:1.0;stroke-dasharray:7.0,7.0;"/><polygon fill="#181818" points="480.591,72.198,487.6945,79.02,485.293,73.8982,490.4149,71.4968,480.591,72.198" style="stroke:#181818;stroke-width:1.0;"/><text fill="#000000" font-family="sans-serif" font-size="13" lengthAdjust="spacing" textLength="52" x="554" y="183.0669">extends</text></g><!--link admin to create_tournaments--><g id="link_admin_create_tournaments"><path d="M90.73,310.892 C111.46,288.715 139.283,261.07 167,240 C215.494,203.136 229.863,195.65 286,172 C305.949,163.596 328.405,156.431 348.947,150.709 " fill="none" id="admin-to-create_tournaments" style="stroke:#181818;stroke-width:1.0;"/><polygon fill="#181818" points="353.848,149.36,344.1095,147.89,349.027,150.686,346.231,155.6035,353.848,149.36" style="stroke:#181818;stroke-width:1.0;"/></g><!--link admin to edit_tournament_data--><g id="link_admin_edit_tournament_data"><path d="M78.3918,310.709 C98.6137,276.412 131.135,225.836 167,188 C212.804,139.679 226.399,126.677 286,97 C305.822,87.13 328.742,79.631 349.74,74.101 " fill="none" id="admin-to-edit_tournament_data" style="stroke:#181818;stroke-width:1.0;"/><polygon fill="#181818" points="354.751,72.808,345.0373,71.1822,349.9094,74.0566,347.035,78.9288,354.751,72.808" style="stroke:#181818;stroke-width:1.0;"/></g><!--link admin to generate_matches--><g id="link_admin_generate_matches"><path d="M106.404,332.085 C116.14,329.116 126.334,326.259 136,324 C201.781,308.628 277.595,297.358 333.653,290.221 " fill="none" id="admin-to-generate_matches" style="stroke:#181818;stroke-width:1.0;"/><polygon fill="#181818" points="338.674,289.587,329.2433,286.7476,333.7135,290.2142,330.2469,294.6844,338.674,289.587" style="stroke:#181818;stroke-width:1.0;"/></g><!--link admin to add_sport_game--><g id="link_admin_add_sport_game"><path d="M106.157,315.951 C115.914,309.767 126.18,303.518 136,298 C204.947,259.257 292.974,234.419 351.636,220.861 " fill="none" id="admin-to-add_sport_game" style="stroke:#181818;stroke-width:1.0;"/><polygon fill="#181818" points="356.513,219.744,346.8467,217.8563,351.6394,220.8613,348.6344,225.654,356.513,219.744" style="stroke:#181818;stroke-width:1.0;"/></g><!--link admin to view_match_schedule--><g id="link_admin_view_match_schedule"><path d="M106.003,379.635 C151.396,407.062 221.438,447.001 286,474 C306.054,482.387 328.54,489.808 349.076,495.865 " fill="none" id="admin-to-view_match_schedule" style="stroke:#181818;stroke-width:1.0;"/><polygon fill="#181818" points="353.975,497.295,346.4567,490.9329,349.1754,495.8937,344.2146,498.6123,353.975,497.295" style="stroke:#181818;stroke-width:1.0;"/></g><!--link particip to view_match_schedule--><g id="link_particip_view_match_schedule"><path d="M247.142,574.636 C259.175,566.523 272.749,558.242 286,552 C304.994,543.052 326.52,535.596 346.49,529.683 " fill="none" id="particip-to-view_match_schedule" style="stroke:#181818;stroke-width:1.0;"/><polygon fill="#181818" points="351.532,528.213,341.772,526.893,346.732,529.613,344.012,534.573,351.532,528.213" style="stroke:#181818;stroke-width:1.0;"/></g><!--link admin to view_participant_ranking--><g id="link_admin_view_participant_ranking"><path d="M106.096,360.504 C165.836,374.501 267.422,398.304 337.816,414.798 " fill="none" id="admin-to-view_participant_ranking" style="stroke:#181818;stroke-width:1.0;"/><polygon fill="#181818" points="342.829,415.972,334.978,410.0255,337.9607,414.8321,333.1541,417.8148,342.829,415.972" style="stroke:#181818;stroke-width:1.0;"/></g><!--link particip to view_participant_ranking--><g id="link_particip_view_participant_ranking"><path d="M222.373,565.867 C235.043,537.093 256.159,498.656 286,475 C299.428,464.355 315.637,456.371 331.975,450.394 " fill="none" id="particip-to-view_participant_ranking" style="stroke:#181818;stroke-width:1.0;"/><polygon fill="#181818" points="337.046,448.603,327.2277,447.8272,332.3312,450.2675,329.8909,455.3709,337.046,448.603" style="stroke:#181818;stroke-width:1.0;"/></g><!--link admin to create_team--><g id="link_admin_create_team"><path d="M58.8262,387.084 C64.1678,459.66 85.0983,619.483 167,720 C212.811,776.2231 294.303,802.4928 351.44,814.4676 " fill="none" id="admin-to-create_team" style="stroke:#181818;stroke-width:1.0;"/><polygon fill="#181818" points="356.545,815.5133,348.5302,809.7895,351.6466,814.5104,346.9256,817.6269,356.545,815.5133" style="stroke:#181818;stroke-width:1.0;"/></g><!--link particip to create_team--><g id="link_particip_create_team"><path d="M213.796,642.287 C222.23,684.587 241.986,751.766 286,790 C302.49,804.324 324.322,812.7134 345.352,817.595 " fill="none" id="particip-to-create_team" style="stroke:#181818;stroke-width:1.0;"/><polygon fill="#181818" points="350.392,818.7027,342.4599,812.8647,345.5085,817.6298,340.7433,820.6783,350.392,818.7027" style="stroke:#181818;stroke-width:1.0;"/></g><!--link admin to view_participant_profile--><g id="link_admin_view_participant_profile"><path d="M60.502,387.186 C68.3506,451.561 92.9266,582.255 167,660 C206.963,701.944 268.058,724.166 319.668,735.915 " fill="none" id="admin-to-view_participant_profile" style="stroke:#181818;stroke-width:1.0;"/><polygon fill="#181818" points="324.632,737.02,316.7171,731.1587,319.7516,735.9328,314.9776,738.9673,324.632,737.02" style="stroke:#181818;stroke-width:1.0;"/></g><!--link particip to view_participant_profile--><g id="link_particip_view_participant_profile"><path d="M235.692,642.043 C256.711,670.736 282.571,705.568 286,708 C299.945,717.892 316.378,725.469 332.772,731.25 " fill="none" id="particip-to-view_participant_profile" style="stroke:#181818;stroke-width:1.0;"/><polygon fill="#181818" points="337.855,732.986,330.6306,726.2922,333.1233,731.3702,328.0453,733.8629,337.855,732.986" style="stroke:#181818;stroke-width:1.0;"/></g><!--link admin to view_match_scores--><g id="link_admin_view_match_scores"><path d="M106.096,349.822 C162.259,350.762 255.406,352.321 324.851,353.483 " fill="none" id="admin-to-view_match_scores" style="stroke:#181818;stroke-width:1.0;"/><polygon fill="#181818" points="330.229,353.573,321.2977,349.4219,325.2297,353.4887,321.1629,357.4207,330.229,353.573" style="stroke:#181818;stroke-width:1.0;"/></g><!--link particip to view_match_scores--><g id="link_particip_view_match_scores"><path d="M211.658,565.741 C218.242,518.283 236.421,438.028 286,392 C299.549,379.422 317.082,371.083 334.845,365.566 " fill="none" id="particip-to-view_match_scores" style="stroke:#181818;stroke-width:1.0;"/><polygon fill="#181818" points="339.858,364.084,330.0929,362.8019,335.0635,365.5026,332.3628,370.4732,339.858,364.084" style="stroke:#181818;stroke-width:1.0;"/></g><!--link particip to register_in_tournament--><g id="link_particip_register_in_tournament"><path d="M247.029,615.85 C276.01,624.649 316.208,636.854 350.07,647.135 " fill="none" id="particip-to-register_in_tournament" style="stroke:#181818;stroke-width:1.0;"/><polygon fill="#181818" points="355.018,648.637,347.5668,642.1965,350.2333,647.1855,345.2444,649.852,355.018,648.637" style="stroke:#181818;stroke-width:1.0;"/></g><!--link particip to leave_tournament--><g id="link_particip_leave_tournament"><path d="M247.029,601.179 C270.238,599.501 300.642,597.303 329.223,595.237 " fill="none" id="particip-to-leave_tournament" style="stroke:#181818;stroke-width:1.0;"/><polygon fill="#181818" points="334.537,594.853,325.2724,591.5114,329.55,595.213,325.8484,599.4906,334.537,594.853" style="stroke:#181818;stroke-width:1.0;"/></g><!--SRC=[fLInRjmm3Dtz5SG5o7RjdY70eIYwT2YQegiWM8nFg4ysA5vQeCY_XvBbMhBi6nfjUe-FZn8fzVZCm0EGxSuCnXAsR0VNDBhbWU1aBjPPpwJ3JdlG0KZaDqriMpjgnu4QqxPfGXBjkXxXy6EuajCNTEpXH2GeqW7-DY3hwh7LNe8-4Mf6AMEEFOHyRKJLWlfIzOGCdiKKxW6T0IFHFYeziegxAFYtW-DrF3vkv8MxtZhyOBG_eu47m3yi2NrJ-dqsbjSrec1Pfk2ZDrGNpUqPV3jGgZ3g8gecD8egD5MyvR9NSs7-7IMDgUqfudK16_XxItZYOPIytJH4CbfJXmHLEJfrQes-r_n4xTc-L9Eb9pXB6MKr_1_-PG4_BVwkh_z5qFhoIz6OFIvvDh-iwnPjHgf4tl2L0gyzriuJlhenOy2F0_77JiuwtPOnAa8gG4rpkrZv1sXujhbVNcqYjzy_walnycLV1dv1XnH2un7IRNO9L0ai9LzHrmFG1t3T_kpLX0b40klMGagKiYwNlyf_6Jv6E6x-Bncv-M4iT7MMXLgtOMQ4skhgVEcm5x1atXsfEiTML7toqBT2cnCtVEVXkEqxHwqI5Uzf__IHBlcTfXOnwubv0m00]--></g></svg>
