<?xml version="1.0" encoding="us-ascii" standalone="no"?><svg xmlns="http://www.w3.org/2000/svg" xmlns:xlink="http://www.w3.org/1999/xlink" contentStyleType="text/css" height="863px" preserveAspectRatio="none" style="width:866px;height:863px;background:#FFFFFF;" version="1.1" viewBox="0 0 866 863" width="866px" zoomAndPan="magnify"><defs/><g><!--cluster Tournaments Arranger--><g id="cluster_Tournaments Arranger"><rect fill="none" height="850" rx="2.5" ry="2.5" style="stroke:#181818;stroke-width:1.0;" width="566" x="294" y="7"/><text fill="#000000" font-family="sans-serif" font-size="14" font-weight="bold" lengthAdjust="spacing" textLength="185" x="484.5" y="21.9951">Tournaments Arranger</text></g><g id="elem_create_tournaments"><ellipse cx="416.2915" cy="135.1583" fill="#F1F1F1" rx="88.7915" ry="20.1583" style="stroke:#181818;stroke-width:0.5;"/><text fill="#000000" font-family="sans-serif" font-size="14" lengthAdjust="spacing" textLength="139" x="346.7915" y="138.005">Create tournament</text></g><g id="elem_set_dates"><ellipse cx="748.4604" cy="363.9921" fill="#F1F1F1" rx="95.4604" ry="21.4921" style="stroke:#181818;stroke-width:0.5;"/><text fill="#000000" font-family="sans-serif" font-size="14" lengthAdjust="spacing" textLength="154" x="671.4604" y="366.8388">Set start &amp; end dates</text></g><g id="elem_edit_tournament_data"><ellipse cx="416.6963" cy="60.9393" fill="#F1F1F1" rx="80.1963" ry="18.4393" style="stroke:#181818;stroke-width:0.5;"/><text fill="#000000" font-family="sans-serif" font-size="14" lengthAdjust="spacing" textLength="119" x="355.6039" y="64.2979">Edit tournament</text></g><g id="elem_edit_match_scores"><ellipse cx="748.4263" cy="211.7853" fill="#F1F1F1" rx="84.4263" ry="19.2853" style="stroke:#181818;stroke-width:0.5;"/><text fill="#000000" font-family="sans-serif" font-size="14" lengthAdjust="spacing" textLength="129" x="683.805" y="214.6739">Edit match scores</text></g><g id="elem_record_match_scores"><ellipse cx="748.6163" cy="136.2233" fill="#F1F1F1" rx="94.1163" ry="21.2233" style="stroke:#181818;stroke-width:0.5;"/><text fill="#000000" font-family="sans-serif" font-size="14" lengthAdjust="spacing" textLength="151" x="673.1163" y="139.0699">Record match scores</text></g><g id="elem_stop_registration"><ellipse cx="748.288" cy="60.8576" fill="#F1F1F1" rx="82.288" ry="18.8576" style="stroke:#181818;stroke-width:0.5;"/><text fill="#000000" font-family="sans-serif" font-size="14" lengthAdjust="spacing" textLength="124" x="685.4505" y="63.9838">Stop registration</text></g><g id="elem_archive_tournament"><ellipse cx="748.4996" cy="287.0999" fill="#F1F1F1" rx="90.9996" ry="20.5999" style="stroke:#181818;stroke-width:0.5;"/><text fill="#000000" font-family="sans-serif" font-size="14" lengthAdjust="spacing" textLength="144" x="676.4996" y="289.9466">Archive tournament</text></g><g id="elem_view_match_scores"><ellipse cx="416.5998" cy="355.22" fill="#F1F1F1" rx="86.5998" ry="19.72" style="stroke:#181818;stroke-width:0.5;"/><text fill="#000000" font-family="sans-serif" font-size="14" lengthAdjust="spacing" textLength="134" x="349.5998" y="358.0666">View match scores</text></g><g id="elem_view_participant_ranking"><ellipse cx="416.4086" cy="433.0817" fill="#F1F1F1" rx="105.9086" ry="23.5817" style="stroke:#181818;stroke-width:0.5;"/><text fill="#000000" font-family="sans-serif" font-size="14" lengthAdjust="spacing" textLength="177" x="327.9086" y="435.9284">View participant ranking</text></g><g id="elem_view_match_schedule"><ellipse cx="416.6163" cy="513.2233" fill="#F1F1F1" rx="94.1163" ry="21.2233" style="stroke:#181818;stroke-width:0.5;"/><text fill="#000000" font-family="sans-serif" font-size="14" lengthAdjust="spacing" textLength="151" x="341.1163" y="516.0699">View match schedule</text></g><g id="elem_add_sport_game"><ellipse cx="416.4652" cy="208.193" fill="#F1F1F1" rx="78.9652" ry="18.193" style="stroke:#181818;stroke-width:0.5;"/><text fill="#000000" font-family="sans-serif" font-size="14" lengthAdjust="spacing" textLength="116" x="356.4" y="211.6886">Add sport/game</text></g><g id="elem_view_participant_profile"><ellipse cx="416.3679" cy="749.1736" fill="#F1F1F1" rx="106.3679" ry="23.6736" style="stroke:#181818;stroke-width:0.5;"/><text fill="#000000" font-family="sans-serif" font-size="14" lengthAdjust="spacing" textLength="178" x="327.3679" y="752.0203">View participants profile</text></g><g id="elem_create_team"><ellipse cx="416.3288" cy="823.7658" fill="#F1F1F1" rx="69.3288" ry="16.2658" style="stroke:#181818;stroke-width:0.5;"/><text fill="#000000" font-family="sans-serif" font-size="14" lengthAdjust="spacing" textLength="91" x="367.8288" y="827.5133">Create team</text></g><g id="elem_generate_matches"><ellipse cx="416.5998" cy="281.22" fill="#F1F1F1" rx="86.5998" ry="19.72" style="stroke:#181818;stroke-width:0.5;"/><text fill="#000000" font-family="sans-serif" font-size="14" lengthAdjust="spacing" textLength="134" x="349.5998" y="284.0666">Generate matches</text></g><g id="elem_leave_tournament"><ellipse cx="416.728" cy="589.0456" fill="#F1F1F1" rx="85.728" ry="19.5456" style="stroke:#181818;stroke-width:0.5;"/><text fill="#000000" font-family="sans-serif" font-size="14" lengthAdjust="spacing" textLength="132" x="350.728" y="591.8923">Leave tournament</text></g><g id="elem_register_in_tournament"><ellipse cx="416.2923" cy="666.7585" fill="#F1F1F1" rx="101.7923" ry="22.7585" style="stroke:#181818;stroke-width:0.5;"/><text fill="#000000" font-family="sans-serif" font-size="14" lengthAdjust="spacing" textLength="168" x="332.2923" y="669.6051">Register in tournament</text></g><!--entity admin--><g id="elem_admin"><ellipse cx="56" cy="319.5" fill="#F1F1F1" rx="8" ry="8" style="stroke:#181818;stroke-width:0.5;"/><path d="M56,327.5 L56,354.5 M43,335.5 L69,335.5 M56,354.5 L43,369.5 M56,354.5 L69,369.5 " fill="none" style="stroke:#181818;stroke-width:0.5;"/><text fill="#000000" font-family="sans-serif" font-size="14" lengthAdjust="spacing" textLength="100" x="6" y="383.9951">Administrator</text></g><!--entity particip--><g id="elem_particip"><ellipse cx="207" cy="574.5" fill="#F1F1F1" rx="8" ry="8" style="stroke:#181818;stroke-width:0.5;"/><path d="M207,582.5 L207,609.5 M194,590.5 L220,590.5 M207,609.5 L194,624.5 M207,609.5 L220,624.5 " fill="none" style="stroke:#181818;stroke-width:0.5;"/><text fill="#000000" font-family="sans-serif" font-size="14" lengthAdjust="spacing" textLength="80" x="167" y="638.9951">Participant</text></g><!--reverse link create_tournaments to set_dates--><g id="link_create_tournaments_set_dates"><path d="M488.988,149.86 C501.578,155.144 513.631,162.303 523,172 C554.06,204.148 524.968,233.18 553,268 C586.059,309.066 641.13,333.927 684.249,348.025 " fill="none" id="create_tournaments-backto-set_dates" style="stroke:#181818;stroke-width:1.0;stroke-dasharray:7.0,7.0;"/><polygon fill="#181818" points="484.329,147.997,491.2009,155.0523,488.9717,149.8532,494.1708,147.624,484.329,147.997" style="stroke:#181818;stroke-width:1.0;"/><text fill="#000000" font-family="sans-serif" font-size="13" lengthAdjust="spacing" textLength="68" x="554" y="264.0669">&#171;extends&#187;</text></g><!--reverse link edit_tournament_data to edit_match_scores--><g id="link_edit_tournament_data_edit_match_scores"><path d="M478.978,75.696 C494.152,80.971 509.82,87.935 523,97 C540.161,108.802 536.203,120.686 553,133 C591.74,161.4 608.494,155.928 653,174 C670.039,180.919 688.83,188.488 705.138,195.036 " fill="none" id="edit_tournament_data-backto-edit_match_scores" style="stroke:#181818;stroke-width:1.0;stroke-dasharray:7.0,7.0;"/><polygon fill="#181818" points="473.855,73.972,481.1078,80.6351,478.5935,75.5677,483.6609,73.0534,473.855,73.972" style="stroke:#181818;stroke-width:1.0;"/><text fill="#000000" font-family="sans-serif" font-size="13" lengthAdjust="spacing" textLength="68" x="554" y="129.0669">&#171;extends&#187;</text></g><!--reverse link edit_tournament_data to record_match_scores--><g id="link_edit_tournament_data_record_match_scores"><path d="M479.378,75.063 C537.116,88.185 622.972,107.698 681.885,121.087 " fill="none" id="edit_tournament_data-backto-record_match_scores" style="stroke:#181818;stroke-width:1.0;stroke-dasharray:7.0,7.0;"/><polygon fill="#181818" points="474.229,73.893,482.1182,79.7888,479.1046,75.0015,483.8918,71.9879,474.229,73.893" style="stroke:#181818;stroke-width:1.0;"/><text fill="#000000" font-family="sans-serif" font-size="13" lengthAdjust="spacing" textLength="68" x="554" y="91.0669">&#171;extends&#187;</text></g><!--reverse link edit_tournament_data to stop_registration--><g id="link_edit_tournament_data_stop_registration"><path d="M501.693,61 C552.141,61 615.972,61 665.944,61 " fill="none" id="edit_tournament_data-backto-stop_registration" style="stroke:#181818;stroke-width:1.0;stroke-dasharray:7.0,7.0;"/><polygon fill="#181818" points="496.543,61,505.543,65,501.543,61,505.543,57,496.543,61" style="stroke:#181818;stroke-width:1.0;"/><text fill="#000000" font-family="sans-serif" font-size="13" lengthAdjust="spacing" textLength="68" x="554" y="57.0669">&#171;extends&#187;</text></g><!--reverse link edit_tournament_data to archive_tournament--><g id="link_edit_tournament_data_archive_tournament"><path d="M485.351,73.852 C499.205,79.118 512.682,86.54 523,97 C553.203,127.618 526.199,155.364 553,189 C586.931,231.583 644.231,257.268 687.873,271.592 " fill="none" id="edit_tournament_data-backto-archive_tournament" style="stroke:#181818;stroke-width:1.0;stroke-dasharray:7.0,7.0;"/><polygon fill="#181818" points="480.642,72.148,487.7418,78.9739,485.3431,73.8507,490.4662,71.452,480.642,72.148" style="stroke:#181818;stroke-width:1.0;"/><text fill="#000000" font-family="sans-serif" font-size="13" lengthAdjust="spacing" textLength="68" x="554" y="185.0669">&#171;extends&#187;</text></g><!--link admin to create_tournaments--><g id="link_admin_create_tournaments"><path d="M90.73,310.892 C111.46,288.715 139.283,261.07 167,240 C215.494,203.136 229.863,195.65 286,172 C305.949,163.596 328.405,156.431 348.947,150.709 " fill="none" id="admin-to-create_tournaments" style="stroke:#181818;stroke-width:1.0;"/><polygon fill="#181818" points="353.848,149.36,344.1095,147.89,349.027,150.686,346.231,155.6035,353.848,149.36" style="stroke:#181818;stroke-width:1.0;"/></g><!--link admin to edit_tournament_data--><g id="link_admin_edit_tournament_data"><path d="M78.3918,310.709 C98.6137,276.412 131.135,225.836 167,188 C212.804,139.679 226.399,126.677 286,97 C305.822,87.13 328.742,79.631 349.74,74.101 " fill="none" id="admin-to-edit_tournament_data" style="stroke:#181818;stroke-width:1.0;"/><polygon fill="#181818" points="354.751,72.808,345.0373,71.1822,349.9094,74.0566,347.035,78.9288,354.751,72.808" style="stroke:#181818;stroke-width:1.0;"/></g><!--link admin to generate_matches--><g id="link_admin_generate_matches"><path d="M106.404,332.085 C116.14,329.116 126.334,326.259 136,324 C201.781,308.628 277.595,297.358 333.653,290.221 " fill="none" id="admin-to-generate_matches" style="stroke:#181818;stroke-width:1.0;"/><polygon fill="#181818" points="338.674,289.587,329.2433,286.7476,333.7135,290.2142,330.2469,294.6844,338.674,289.587" style="stroke:#181818;stroke-width:1.0;"/></g><!--link admin to add_sport_game--><g id="link_admin_add_sport_game"><path d="M106.157,315.951 C115.914,309.767 126.18,303.518 136,298 C204.947,259.257 292.974,234.419 351.636,220.861 " fill="none" id="admin-to-add_sport_game" style="stroke:#181818;stroke-width:1.0;"/><polygon fill="#181818" points="356.513,219.744,346.8467,217.8563,351.6394,220.8613,348.6344,225.654,356.513,219.744" style="stroke:#181818;stroke-width:1.0;"/></g><!--link admin to view_match_schedule--><g id="link_admin_view_match_schedule"><path d="M106.003,379.635 C151.396,407.062 221.438,447.001 286,474 C306.054,482.387 328.54,489.808 349.076,495.865 " fill="none" id="admin-to-view_match_schedule" style="stroke:#181818;stroke-width:1.0;"/><polygon fill="#181818" points="353.975,497.295,346.4567,490.9329,349.1754,495.8937,344.2146,498.6123,353.975,497.295" style="stroke:#181818;stroke-width:1.0;"/></g><!--link particip to view_match_schedule--><g id="link_particip_view_match_schedule"><path d="M247.142,574.636 C259.175,566.523 272.749,558.242 286,552 C304.994,543.052 326.52,535.596 346.49,529.683 " fill="none" id="particip-to-view_match_schedule" style="stroke:#181818;stroke-width:1.0;"/><polygon fill="#181818" points="351.532,528.213,341.772,526.893,346.732,529.613,344.012,534.573,351.532,528.213" style="stroke:#181818;stroke-width:1.0;"/></g><!--link admin to view_participant_ranking--><g id="link_admin_view_participant_ranking"><path d="M106.096,360.504 C165.836,374.501 267.422,398.304 337.816,414.798 " fill="none" id="admin-to-view_participant_ranking" style="stroke:#181818;stroke-width:1.0;"/><polygon fill="#181818" points="342.829,415.972,334.978,410.0255,337.9607,414.8321,333.1541,417.8148,342.829,415.972" style="stroke:#181818;stroke-width:1.0;"/></g><!--link particip to view_participant_ranking--><g id="link_particip_view_participant_ranking"><path d="M222.373,565.867 C235.043,537.093 256.159,498.656 286,475 C299.428,464.355 315.637,456.371 331.975,450.394 " fill="none" id="particip-to-view_participant_ranking" style="stroke:#181818;stroke-width:1.0;"/><polygon fill="#181818" points="337.046,448.603,327.2277,447.8272,332.3312,450.2675,329.8909,455.3709,337.046,448.603" style="stroke:#181818;stroke-width:1.0;"/></g><!--link admin to create_team--><g id="link_admin_create_team"><path d="M58.8262,387.084 C64.1678,459.66 85.0983,619.483 167,720 C212.811,776.2231 294.303,802.4928 351.44,814.4676 " fill="none" id="admin-to-create_team" style="stroke:#181818;stroke-width:1.0;"/><polygon fill="#181818" points="356.545,815.5133,348.5302,809.7895,351.6466,814.5104,346.9256,817.6269,356.545,815.5133" style="stroke:#181818;stroke-width:1.0;"/></g><!--link particip to create_team--><g id="link_particip_create_team"><path d="M213.796,642.287 C222.23,684.587 241.986,751.766 286,790 C302.49,804.324 324.322,812.7134 345.352,817.595 " fill="none" id="particip-to-create_team" style="stroke:#181818;stroke-width:1.0;"/><polygon fill="#181818" points="350.392,818.7027,342.4599,812.8647,345.5085,817.6298,340.7433,820.6783,350.392,818.7027" style="stroke:#181818;stroke-width:1.0;"/></g><!--link admin to view_participant_profile--><g id="link_admin_view_participant_profile"><path d="M60.502,387.186 C68.3506,451.561 92.9266,582.255 167,660 C206.963,701.944 268.058,724.166 319.668,735.915 " fill="none" id="admin-to-view_participant_profile" style="stroke:#181818;stroke-width:1.0;"/><polygon fill="#181818" points="324.632,737.02,316.7171,731.1587,319.7516,735.9328,314.9776,738.9673,324.632,737.02" style="stroke:#181818;stroke-width:1.0;"/></g><!--link particip to view_participant_profile--><g id="link_particip_view_participant_profile"><path d="M235.692,642.043 C256.711,670.736 282.571,705.568 286,708 C299.945,717.892 316.378,725.469 332.772,731.25 " fill="none" id="particip-to-view_participant_profile" style="stroke:#181818;stroke-width:1.0;"/><polygon fill="#181818" points="337.855,732.986,330.6306,726.2922,333.1233,731.3702,328.0453,733.8629,337.855,732.986" style="stroke:#181818;stroke-width:1.0;"/></g><!--link admin to view_match_scores--><g id="link_admin_view_match_scores"><path d="M106.096,349.822 C162.259,350.762 255.406,352.321 324.851,353.483 " fill="none" id="admin-to-view_match_scores" style="stroke:#181818;stroke-width:1.0;"/><polygon fill="#181818" points="330.229,353.573,321.2977,349.4219,325.2297,353.4887,321.1629,357.4207,330.229,353.573" style="stroke:#181818;stroke-width:1.0;"/></g><!--link particip to view_match_scores--><g id="link_particip_view_match_scores"><path d="M211.658,565.741 C218.242,518.283 236.421,438.028 286,392 C299.549,379.422 317.082,371.083 334.845,365.566 " fill="none" id="particip-to-view_match_scores" style="stroke:#181818;stroke-width:1.0;"/><polygon fill="#181818" points="339.858,364.084,330.0929,362.8019,335.0635,365.5026,332.3628,370.4732,339.858,364.084" style="stroke:#181818;stroke-width:1.0;"/></g><!--link particip to register_in_tournament--><g id="link_particip_register_in_tournament"><path d="M247.029,615.85 C276.01,624.649 316.208,636.854 350.07,647.135 " fill="none" id="particip-to-register_in_tournament" style="stroke:#181818;stroke-width:1.0;"/><polygon fill="#181818" points="355.018,648.637,347.5668,642.1965,350.2333,647.1855,345.2444,649.852,355.018,648.637" style="stroke:#181818;stroke-width:1.0;"/></g><!--link particip to leave_tournament--><g id="link_particip_leave_tournament"><path d="M247.029,601.179 C270.238,599.501 300.642,597.303 329.223,595.237 " fill="none" id="particip-to-leave_tournament" style="stroke:#181818;stroke-width:1.0;"/><polygon fill="#181818" points="334.537,594.853,325.2724,591.5114,329.55,595.213,325.8484,599.4906,334.537,594.853" style="stroke:#181818;stroke-width:1.0;"/></g><!--SRC=[hLJ1Yjmm3BtdAyGKUflsNfQ1ePHUzb2wfTTWOct6DEC4MRCjbFvxPSTfxDYJGzdS_9wUz6mf6l2PWKSWqryOj27is8osQLJ78y5PNuqrZadvatAWF139BuhOT6PIbZqrnMFJ-2JAzWF2uTju8wkkQDd1cKXGf0FyRa2-cyDEEGdwIAWOnSOIU_3vke2sA-forHCoE9QYy1RGQj0IxOBI8RVX50J_Jd2yJSTJ9I-y6Op5Trgv2shu00yF-8ibfJkTchpc9sruwnC5IxBvMggYkYhkBk2waQBBe0jeEwD1LA3HTQtAdk_Cm5UKLBgqG04lJLJmrx3nnECakVjve6JCvcu9sgRetBKj-Xe6pjHTp4inQMg6axH1LiB_wI4tyTtWpx8LBuAMZSX5K_B3oQ_qmzX-rIPa6ycTkcBoDc1PUSOthwOrk6aaVj_BVUSNqxeDKEkXPj-hh0OQdqrQBZKRoVfAG7NDbe6Syy3FQ95yQBX1VCm-Wcq4SyaZgd861Wzk9o3vWVmW8e6nMo55gZKsbV-H5Uft9HohAoSXg_jZfOkxhDIs2miZLAsfowF3lO0ryzs9AdFKeigR-xvbsfJOgRiCntxT9MgJAFkTxjy-q3b_fwbPp7PY_W80]--></g></svg>
